<?xml version="1.0" encoding="UTF-8"?>
<svg id="Layer_1" xmlns="http://www.w3.org/2000/svg" version="1.1" viewBox="0 0 50 50">
  <!-- Generator: Adobe Illustrator 29.0.1, SVG Export Plug-In . SVG Version: 2.1.0 Build 192)  -->
  <defs>
    <style>
      .st0, .st1 {
        fill: #6f42c1;
      }

      .st1 {
        stroke: #fff611;
        stroke-linecap: round;
        stroke-miterlimit: 10;
        stroke-width: 3px;
      }

      .st2 {
        fill: #00b6e7;
      }
    </style>
  </defs>
  <g id="bottom">
    <path class="st0" d="M25.1,49h1c-.3,0-.7,0-1,0Z"/>
    <path class="st0" d="M33.5,46.4l-16.2,1.2c1.6,2.1,4.7,3.5,7.7,3.5s7.1-1.8,8.5-4.6h0Z"/>
  </g>
  <g id="mid">
    <polygon class="st0" points="34 41.4 34 44.4 16 45.6 16 42.6 34 41.4"/>
    <polygon class="st0" points="34 41.4 16 42.6 16 45.6 34 44.4 34 41.4 34 41.4"/>
  </g>
  <g id="bulb">
    <path class="st2" d="M17.4,39c-.3-2.1-1.6-3.9-2.8-5.8-1-1.5-2.1-3.1-2.6-4.7h0s-.5-1.7-.5-3.6c0-7.4,6.1-13.5,13.5-13.5s13.5,6.1,13.5,13.5-.5,3.6-.5,3.6c-.5,1.6-1.6,3.2-2.6,4.7-1,1.5-2.1,3-2.6,4.7l-15.4,1.1Z"/>
    <path class="st0" d="M25,13c6.6,0,12,5.4,12,12s-.4,3-.4,3.2c-.5,1.4-1.4,2.8-2.4,4.3-.9,1.3-1.8,2.6-2.4,4.1l-13.2.9c-.6-1.8-1.7-3.4-2.8-5-1-1.5-1.9-2.8-2.4-4.3,0-.2-.4-1.6-.4-3.2,0-6.6,5.4-12,12-12M25,10c-8.3,0-15,6.7-15,15s.5,4,.5,4c1.3,4.2,5.5,7.4,5.5,11v.6l18-1.3c.4-3.4,4.2-6.4,5.4-10.3,0,0,.5-1.9.5-4,0-8.3-6.7-15-15-15h0Z"/>
  </g>
  <g id="light">
    <line class="st1" x1="44" y1="25" x2="50" y2="25"/>
    <line class="st1" y1="25" x2="6" y2="25"/>
    <line class="st1" x1="38.4" y1="11.6" x2="42.7" y2="7.3"/>
    <line class="st1" x1="7.3" y1="7.3" x2="11.6" y2="11.6"/>
    <line class="st1" x1="25" x2="25" y2="6"/>
  </g>
</svg>