<?xml version="1.0" encoding="UTF-8"?>
<svg id="Layer_1" xmlns="http://www.w3.org/2000/svg" version="1.1" viewBox="0 0 32 32">
  <!-- Generator: Adobe Illustrator 29.0.1, SVG Export Plug-In . SVG Version: 2.1.0 Build 192)  -->
  <defs>
    <style>
      .st0 {
        fill: #ff7262;
      }

      .st1 {
        fill: #a259ff;
      }

      .st2 {
        fill: #1abcfe;
      }

      .st3 {
        fill: #f24e1e;
      }

      .st4 {
        fill: #0acf83;
      }
    </style>
  </defs>
  <path class="st2" d="M16,16c0-2.9,2.4-5.3,5.3-5.3h0c2.9,0,5.3,2.4,5.3,5.3h0c0,2.9-2.4,5.3-5.3,5.3h0c-2.9,0-5.3-2.4-5.3-5.3h0Z"/>
  <path class="st4" d="M5.4,26.6c0-2.9,2.4-5.3,5.3-5.3h5.3v5.3c0,2.9-2.4,5.3-5.3,5.3h0c-2.9,0-5.3-2.4-5.3-5.3h0Z"/>
  <path class="st0" d="M16,.2v10.6h5.3c2.9,0,5.3-2.4,5.3-5.3h0c0-2.9-2.4-5.3-5.3-5.3h-5.3Z"/>
  <path class="st3" d="M5.4,5.4c0,2.9,2.4,5.3,5.3,5.3h5.3V.2h-5.3C7.8.2,5.4,2.5,5.4,5.4h0Z"/>
  <path class="st1" d="M5.4,16c0,2.9,2.4,5.3,5.3,5.3h5.3v-10.6h-5.3c-2.9,0-5.3,2.4-5.3,5.3h0Z"/>
</svg>