<?xml version="1.0" encoding="UTF-8"?>
<svg id="Layer_1" xmlns="http://www.w3.org/2000/svg" version="1.1" viewBox="0 0 32 32">
  <!-- Generator: Adobe Illustrator 29.0.1, SVG Export Plug-In . SVG Version: 2.1.0 Build 192)  -->
  <defs>
    <style>
      .st0, .st1 {
        fill: none;
        stroke: #c873ab;
        stroke-miterlimit: 10;
      }

      .st2 {
        fill: #c873ab;
      }

      .st1 {
        stroke-linecap: round;
        stroke-width: 1.5px;
      }
    </style>
  </defs>
  <path class="st2" d="M16,1.5c8,0,14.5,6.5,14.5,14.5s-6.5,14.5-14.5,14.5S1.5,24,1.5,16,8,1.5,16,1.5M16,0C7.2,0,0,7.2,0,16s7.2,16,16,16,16-7.2,16-16S24.8,0,16,0h0Z"/>
  <path class="st2" d="M16.5,5.1c1.3,0,2.5.9,2.9,2.2l3.9,14.5c.4,1.6-.5,3.2-2.1,3.7l-4.8,1.3c-.3,0-.5.1-.8.1-1.3,0-2.5-.9-2.9-2.2l-3.9-14.5c-.4-1.6.5-3.2,2.1-3.7l4.8-1.3c.3,0,.5-.1.8-.1M16.5,3.1h0c-.4,0-.9,0-1.3.2l-4.8,1.3c-2.7.7-4.2,3.5-3.5,6.1l3.9,14.5c.6,2.2,2.6,3.7,4.8,3.7s.9,0,1.3-.2l4.8-1.3c2.7-.7,4.2-3.5,3.5-6.1l-3.9-14.5c-.6-2.2-2.6-3.7-4.8-3.7h0Z"/>
  <line class="st0" x1="9" y1="11.1" x2="19.6" y2="8.3"/>
  <line class="st0" x1="11.8" y1="23.3" x2="23.3" y2="20.2"/>
  <line class="st1" x1="11.9" y1="8.3" x2="15.7" y2="7.3"/>
  <circle class="st2" cx="18.2" cy="24.2" r="1.5"/>
</svg>