<?xml version="1.0" encoding="UTF-8"?>
<svg id="Layer_1" xmlns="http://www.w3.org/2000/svg" version="1.1" viewBox="0 0 32 32">
  <!-- Generator: Adobe Illustrator 29.0.1, SVG Export Plug-In . SVG Version: 2.1.0 Build 192)  -->
  <defs>
    <style>
      .st0 {
        fill: #2ca35f;
      }

      .st1 {
        fill: none;
        stroke: #2ca35f;
        stroke-miterlimit: 10;
      }
    </style>
  </defs>
  <path class="st0" d="M16,2c7.7,0,14,6.3,14,14s-6.3,14-14,14S2,23.7,2,16,8.3,2,16,2M16,0C7.2,0,0,7.2,0,16s7.2,16,16,16,16-7.2,16-16S24.8,0,16,0h0Z"/>
  <g>
    <path class="st0" d="M6.7,13.5h3.5c1.2,0,2.2,1,2.2,2.2v.5c0,1.2-1,2.2-2.2,2.2h-3.5c-1.2,0-2.2-1-2.2-2.2v-.5c0-1.2,1-2.2,2.2-2.2Z"/>
    <path class="st0" d="M10.3,14.1c.9,0,1.6.7,1.6,1.6v.5c0,.9-.7,1.6-1.6,1.6h-3.5c-.9,0-1.6-.7-1.6-1.6v-.5c0-.9.7-1.6,1.6-1.6h3.5M10.3,13h-3.5c-1.5,0-2.7,1.2-2.7,2.7v.5c0,1.5,1.2,2.7,2.7,2.7h3.5c1.5,0,2.7-1.2,2.7-2.7v-.5c0-1.5-1.2-2.7-2.7-2.7h0Z"/>
  </g>
  <g>
    <path class="st0" d="M20,10.5c-.8,0-1.5-.7-1.5-1.5s.7-1.5,1.5-1.5h3c.8,0,1.5.7,1.5,1.5s-.7,1.5-1.5,1.5h-3Z"/>
    <path class="st0" d="M23,8c.6,0,1,.4,1,1s-.4,1-1,1h-3c-.6,0-1-.4-1-1s.4-1,1-1h3M23,7h-3c-1.1,0-2,.9-2,2s.9,2,2,2h3c1.1,0,2-.9,2-2s-.9-2-2-2h0Z"/>
  </g>
  <g>
    <path class="st0" d="M20,17.5c-.8,0-1.5-.7-1.5-1.5s.7-1.5,1.5-1.5h3c.8,0,1.5.7,1.5,1.5s-.7,1.5-1.5,1.5h-3Z"/>
    <path class="st0" d="M23,15c.6,0,1,.4,1,1s-.4,1-1,1h-3c-.6,0-1-.4-1-1s.4-1,1-1h3M23,14h-3c-1.1,0-2,.9-2,2s.9,2,2,2h3c1.1,0,2-.9,2-2s-.9-2-2-2h0Z"/>
  </g>
  <g>
    <path class="st0" d="M20,24.5c-.8,0-1.5-.7-1.5-1.5s.7-1.5,1.5-1.5h3c.8,0,1.5.7,1.5,1.5s-.7,1.5-1.5,1.5h-3Z"/>
    <path class="st0" d="M23,22c.6,0,1,.4,1,1s-.4,1-1,1h-3c-.6,0-1-.4-1-1s.4-1,1-1h3M23,21h-3c-1.1,0-2,.9-2,2s.9,2,2,2h3c1.1,0,2-.9,2-2s-.9-2-2-2h0Z"/>
  </g>
  <line class="st1" x1="19" y1="16" x2="12" y2="16"/>
  <path class="st1" d="M12,16h1.2c1.6,0,2.3-.9,2.3-2.6v-1.8c0-1.8.8-2.6,2.3-2.6s.8,0,1.2,0"/>
  <path class="st1" d="M12,16h1.2c1.6,0,2.3.9,2.3,2.6v1.8c0,1.8.8,2.6,2.3,2.6s.8,0,1.2,0"/>
</svg>