<?xml version="1.0" encoding="UTF-8"?>
<svg version="1.1" xmlns="http://www.w3.org/2000/svg"
														xmlns:xlink="http://www.w3.org/1999/xlink" width="32"
														height="32" viewBox="0 0 450 450"
														style="enable-background:new 0 0 640 480;" xml:space="preserve">
														<path fill="#FFFFFF" d="M201.74,72.8c36.85,0,73.69-0.04,110.54,0.01c-0.26,10.34,0.43,20.91-0.32,31.1
		c-22.31,0.14-44.63,0.01-66.95,0.05c0.04,13.81-0.09,27.62,0.07,41.42c18.95-0.07,37.89-0.02,56.84-0.02v30.61
		c-18.97,0.02-37.94,0-56.91,0.01v69.87c-14.43,0-28.84,0.01-43.27-0.01V72.8z" />
														<path fill="#FFFFFF" d="M169.89,352.38c7.61-6.91,19.05-7.9,28.62-5.17c5.94,1.66,11.8,6.02,12.92,12.42
		c0.43,3.73,0.83,8.02-1.53,11.24c-2.39,3.46-6.43,5.28-10.39,6.27c5.87,1.13,12.17,4.46,13.85,10.63
		c1.11,5.98,0.88,12.94-3.44,17.67c-5.16,5.86-13.29,7.9-20.82,8.1c-6.69-0.12-13.82-1.23-19.18-5.56c-4.14-3.2-6.15-8.31-7.2-13.28
		c5.11-0.47,10.24-0.1,15.37-0.25c1.21,7.54,11.17,9.71,16.71,5.5c3.27-2.71,3.12-7.69,2.13-11.42c-2.85-5.83-10.4-5.13-15.82-5.1
		c-0.01-3.69-0.01-7.36,0-11.04c3.69-0.09,7.57,0.46,11.05-1.06c4.1-1.96,4.32-7.79,2.42-11.34c-4.41-5.26-14.79-2.73-15.23,4.58
		c-5.15,0.02-10.3,0.05-15.45-0.03C164.66,360.03,166.37,355.48,169.89,352.38" />
														<path fill="#FFFFFF" d="M232.34,349.21c8.15-4.34,18.22-4.24,26.79-1.16c6.67,2.41,11.23,8.99,11.36,16.05
		c-4.74,0-9.49,0.05-14.23-0.03c-0.98-7.5-11.63-8.65-16.36-4.08c-3.51,4.24-2.15,10.07-2.42,15.11c8.74-8.33,25.33-6.89,31.71,3.67
		c2.89,4.6,2.95,10.28,2.6,15.52c-0.53,7.57-5.97,14.22-12.92,16.98c-8.19,3.22-17.76,3.16-25.81-0.46
		c-6.76-3.06-11.32-10.08-11.63-17.46c-0.14-8.32-0.05-16.63-0.04-24.95C221.47,360.7,225.46,352.92,232.34,349.21 M237.5,385.83
		c0.21,4.08-0.87,8.62,1.43,12.32c3.12,4.2,9.76,4.35,13.82,1.52c3.65-3.14,3.28-8.55,2.77-12.88c-0.53-3.89-4.77-6.05-8.41-5.48
		C243.39,381.35,240.11,383.29,237.5,385.83" />
														<path fill="#FFFFFF" d="M298.31,346.62c8.04-1.52,17.01-0.95,24,3.66c6.21,4.18,8.82,11.97,8.71,19.21
		c-0.12,7.92,0.19,15.87-0.16,23.79c-0.49,7.77-5.28,15.37-12.76,18.09c-8.98,3.38-19.74,3.1-28.07-1.89
		c-6.32-3.82-9.47-11.26-9.54-18.44c-0.05-6.84,0.02-13.68-0.03-20.53c-0.05-5.59,0.96-11.5,4.49-15.99
		C288.19,350.3,293.17,347.7,298.31,346.62 M302.2,357.98c-3.81,1.27-5.42,5.5-5.53,9.21c-0.16,7.56-0.01,15.13-0.08,22.69
		c-0.02,3.65,0.56,7.95,3.77,10.21c4.41,2.67,11.77,1.85,13.57-3.63c1.76-5.94,0.63-12.24,0.95-18.35
		c-0.3-5.58,0.98-11.6-1.56-16.82C311.28,357.35,306.05,356.57,302.2,357.98" />
														<path fill="#FF6B00" d="M88.57,3.2c3.04,0.27,6.09,0.23,9.14,0.19c94.27,0,188.53,0.01,282.81,0c3.9,0.05,7.87-0.24,11.72,0.67
		c9.34,2.53,16.29,11.77,16.17,21.46c0.03,15.69,0,31.38,0.01,47.07c-0.02,81.06,0.03,162.12-0.02,243.18
		c-106.7,0.12-213.39-0.1-320.09,0.11c-0.01-79.27,0-158.53-0.01-237.79c1.13-17.87,0.35-35.8,0.58-53.7
		c-0.1-6.95,0.27-13.92-0.28-20.86L88.57,3.2z M201.74,72.8v173.05c14.43,0.02,28.84,0.01,43.27,0.01v-69.87
		c18.97-0.01,37.94,0.01,56.91-0.01v-30.61c-18.95,0-37.89-0.05-56.84,0.02c-0.15-13.8-0.02-27.6-0.07-41.42
		c22.32-0.04,44.64,0.09,66.95-0.05c0.75-10.19,0.07-20.76,0.32-31.1C275.43,72.75,238.59,72.8,201.74,72.8" />
														<path fill="#FF9447" d="M78.85,8.77c3.21-1.79,6.15-4.21,9.74-5.23c0.55,6.94,0.18,13.91,0.28,20.86c-0.23,17.9,0.55,35.83-0.58,53.7
		c0.01,79.26,0,158.52,0.01,237.79c-10.32,5.99-20.45,12.33-30.72,18.41c-12.24,7.43-24.53,14.8-36.8,22.21
		c0.01-104.19,0.07-208.37-0.03-312.56C39.99,32.02,59.5,20.52,78.85,8.77" />
														<path fill="#923B00" d="M408.41,72.59c10.28-0.01,20.55-0.03,30.84,0.01c0,124.96,0.01,249.91-0.01,374.86
		c-119.96,0-239.9,0.02-359.86-0.01C67.54,447.95,57.3,437,57.46,425.39c0.02-30.36-0.21-60.74,0.12-91.09
		c10.28-6.08,20.4-12.43,30.72-18.41c106.69-0.21,213.38,0.01,320.09-0.11C408.44,234.71,408.39,153.66,408.41,72.59 M169.89,352.38
		c-3.53,3.11-5.24,7.65-6.01,12.18c5.15,0.09,10.3,0.05,15.45,0.03c0.44-7.31,10.82-9.84,15.23-4.58c1.9,3.55,1.68,9.38-2.42,11.34
		c-3.48,1.53-7.36,0.98-11.05,1.06c-0.01,3.68-0.01,7.35,0,11.04c5.43-0.03,12.98-0.73,15.82,5.1c0.99,3.73,1.14,8.71-2.13,11.42
		c-5.54,4.2-15.5,2.03-16.7-5.5c-5.13,0.15-10.27-0.23-15.37,0.25c1.05,4.97,3.06,10.07,7.2,13.28c5.35,4.33,12.49,5.44,19.18,5.56
		c7.54-0.2,15.66-2.25,20.82-8.1c4.32-4.73,4.55-11.7,3.44-17.67c-1.68-6.17-7.98-9.5-13.85-10.63c3.97-0.99,8.01-2.81,10.39-6.27
		c2.36-3.22,1.96-7.51,1.53-11.24c-1.12-6.39-6.98-10.76-12.92-12.42C188.94,344.48,177.5,345.46,169.89,352.38 M232.34,349.21
		c-6.88,3.72-10.87,11.49-10.95,19.18c-0.01,8.32-0.1,16.63,0.04,24.95c0.31,7.37,4.87,14.39,11.63,17.46
		c8.05,3.62,17.62,3.69,25.81,0.46c6.95-2.75,12.39-9.41,12.92-16.98c0.35-5.24,0.29-10.92-2.6-15.52
		c-6.39-10.56-22.97-12-31.71-3.67c0.27-5.04-1.1-10.88,2.42-15.11c4.73-4.57,15.38-3.42,16.36,4.09c4.74,0.08,9.49,0.03,14.23,0.03
		c-0.13-7.06-4.7-13.64-11.36-16.05C250.56,344.97,240.49,344.86,232.34,349.21 M298.31,346.63c-5.14,1.08-10.12,3.68-13.35,7.89
		c-3.54,4.49-4.55,10.4-4.49,15.99c0.05,6.85-0.02,13.7,0.03,20.53c0.06,7.18,3.21,14.62,9.54,18.44
		c8.33,4.99,19.09,5.27,28.07,1.89c7.48-2.72,12.27-10.32,12.76-18.09c0.36-7.92,0.04-15.87,0.16-23.79
		c0.12-7.23-2.49-15.03-8.71-19.21C315.31,345.68,306.35,345.11,298.31,346.63" />
														<path fill="#923B00" d="M302.2,357.98c3.85-1.41,9.08-0.62,11.13,3.31c2.54,5.22,1.26,11.24,1.56,16.82
		c-0.31,6.11,0.82,12.4-0.95,18.35c-1.79,5.48-9.16,6.3-13.57,3.63c-3.21-2.27-3.8-6.57-3.77-10.21c0.07-7.57-0.08-15.13,0.08-22.69
		C296.78,363.48,298.39,359.25,302.2,357.98" />
														<path fill="#923B00" d="M237.5,385.83c2.61-2.54,5.89-4.48,9.62-4.52c3.63-0.57,7.88,1.59,8.41,5.48c0.51,4.33,0.88,9.74-2.77,12.88
		c-4.06,2.84-10.71,2.69-13.82-1.52C236.63,394.45,237.71,389.91,237.5,385.83" />
													</svg>