<svg width="492" height="336" viewBox="0 0 492 336" fill="none" xmlns="http://www.w3.org/2000/svg">
<rect x="0.5" y="0.5" width="491" height="335" rx="4.5" stroke="#0C468B" stroke-dasharray="10 5"/>
<g clip-path="url(#clip0_644_19)">
<path d="M31 26.5V28.5" stroke="#1D272C" stroke-width="2" stroke-linecap="round" stroke-linejoin="round"/>
<path d="M49 26.5V28.5" stroke="#1D272C" stroke-width="2" stroke-linecap="round" stroke-linejoin="round"/>
<path d="M50 28.5H30C27.7909 28.5 26 30.2909 26 32.5V49.5C26 51.7091 27.7909 53.5 30 53.5H50C52.2091 53.5 54 51.7091 54 49.5V32.5C54 30.2909 52.2091 28.5 50 28.5Z" stroke="#1D272C" stroke-width="2" stroke-linejoin="round"/>
<path d="M43.5 35H42.5C41.9477 35 41.5 35.4477 41.5 36V37C41.5 37.5523 41.9477 38 42.5 38H43.5C44.0523 38 44.5 37.5523 44.5 37V36C44.5 35.4477 44.0523 35 43.5 35Z" stroke="#1D272C" stroke-linejoin="round"/>
<path d="M49.5 35H48.5C47.9477 35 47.5 35.4477 47.5 36V37C47.5 37.5523 47.9477 38 48.5 38H49.5C50.0523 38 50.5 37.5523 50.5 37V36C50.5 35.4477 50.0523 35 49.5 35Z" stroke="#1D272C" stroke-linejoin="round"/>
<path d="M37.5 35H36.5C35.9477 35 35.5 35.4477 35.5 36V37C35.5 37.5523 35.9477 38 36.5 38H37.5C38.0523 38 38.5 37.5523 38.5 37V36C38.5 35.4477 38.0523 35 37.5 35Z" stroke="#1D272C" stroke-linejoin="round"/>
<path d="M43.5 47H42.5C41.9477 47 41.5 47.4477 41.5 48V49C41.5 49.5523 41.9477 50 42.5 50H43.5C44.0523 50 44.5 49.5523 44.5 49V48C44.5 47.4477 44.0523 47 43.5 47Z" stroke="#1D272C" stroke-linejoin="round"/>
<path d="M31.5 41H30.5C29.9477 41 29.5 41.4477 29.5 42V43C29.5 43.5523 29.9477 44 30.5 44H31.5C32.0523 44 32.5 43.5523 32.5 43V42C32.5 41.4477 32.0523 41 31.5 41Z" stroke="#1D272C" stroke-linejoin="round"/>
<path d="M31.5 47H30.5C29.9477 47 29.5 47.4477 29.5 48V49C29.5 49.5523 29.9477 50 30.5 50H31.5C32.0523 50 32.5 49.5523 32.5 49V48C32.5 47.4477 32.0523 47 31.5 47Z" stroke="#1D272C" stroke-linejoin="round"/>
<path d="M37.5 47H36.5C35.9477 47 35.5 47.4477 35.5 48V49C35.5 49.5523 35.9477 50 36.5 50H37.5C38.0523 50 38.5 49.5523 38.5 49V48C38.5 47.4477 38.0523 47 37.5 47Z" stroke="#1D272C" stroke-linejoin="round"/>
<path d="M26 31H54" stroke="#1D272C" stroke-width="3" stroke-linejoin="round"/>
<path d="M43.5 41H42.5C41.9477 41 41.5 41.4477 41.5 42V43C41.5 43.5523 41.9477 44 42.5 44H43.5C44.0523 44 44.5 43.5523 44.5 43V42C44.5 41.4477 44.0523 41 43.5 41Z" stroke="#1D272C" stroke-linejoin="round"/>
<path d="M49.5 41H48.5C47.9477 41 47.5 41.4477 47.5 42V43C47.5 43.5523 47.9477 44 48.5 44H49.5C50.0523 44 50.5 43.5523 50.5 43V42C50.5 41.4477 50.0523 41 49.5 41Z" stroke="#1D272C" stroke-linejoin="round"/>
<path d="M37.5 41H36.5C35.9477 41 35.5 41.4477 35.5 42V43C35.5 43.5523 35.9477 44 36.5 44H37.5C38.0523 44 38.5 43.5523 38.5 43V42C38.5 41.4477 38.0523 41 37.5 41Z" stroke="#1D272C" stroke-linejoin="round"/>
</g>
<g clip-path="url(#clip1_644_19)">
<path d="M116 33L114 47H98L96 32L116 33Z" fill="#1D272C" stroke="#1D272C" stroke-width="2" stroke-linecap="round" stroke-linejoin="round"/>
<path d="M101 52C101.552 52 102 51.5523 102 51C102 50.4477 101.552 50 101 50C100.448 50 100 50.4477 100 51C100 51.5523 100.448 52 101 52Z" stroke="#1D272C" stroke-width="2" stroke-linecap="round" stroke-linejoin="round"/>
<path d="M111 52C111.552 52 112 51.5523 112 51C112 50.4477 111.552 50 111 50C110.448 50 110 50.4477 110 51C110 51.5523 110.448 52 111 52Z" stroke="#1D272C" stroke-width="2" stroke-linecap="round" stroke-linejoin="round"/>
<path d="M95.33 28H92" stroke="#1D272C" stroke-width="2" stroke-linecap="round" stroke-linejoin="round"/>
<path d="M96.0001 32L95.3301 28" stroke="#1D272C" stroke-width="2" stroke-linecap="round" stroke-linejoin="round"/>
</g>
<g clip-path="url(#clip2_644_19)">
<path d="M177 42.18V46C177 48.75 174.75 51 172 51H160C157.25 51 155 48.75 155 46V34C155 31.25 157.25 29 160 29H172C173.76 29 175.31 29.92 176.2 31.3" stroke="#1D272C" stroke-width="2" stroke-linecap="round" stroke-linejoin="round"/>
<path d="M163 40L168 46" stroke="#1D272C" stroke-width="2" stroke-linecap="round" stroke-linejoin="round"/>
<path d="M181 32L168 46" stroke="#1D272C" stroke-width="2" stroke-linecap="round" stroke-linejoin="round"/>
</g>
<g clip-path="url(#clip3_644_19)">
<path d="M232 28C238.62 28 244 33.38 244 40C244 46.62 238.62 52 232 52C225.38 52 220 46.62 220 40C220 33.38 225.38 28 232 28ZM232 26C224.27 26 218 32.27 218 40C218 47.73 224.27 54 232 54C239.73 54 246 47.73 246 40C246 32.27 239.73 26 232 26Z" fill="#1D272C"/>
<path d="M226 34L238 46" stroke="#1D272C" stroke-width="2" stroke-linecap="round" stroke-linejoin="round"/>
<path d="M238 34L226 46" stroke="#1D272C" stroke-width="2" stroke-linecap="round" stroke-linejoin="round"/>
</g>
<g clip-path="url(#clip4_644_19)">
<path d="M306 48C306 50.76 303.76 53 301 53C300.46 53 299.94 52.91 299.45 52.76C296.17 51.69 295.83 51.69 292.55 52.76C292.06 52.91 291.54 53 291 53C288.24 53 286 50.76 286 48C286 46.31 286.84 44.82 288.12 43.91C288.16 43.88 288.19 43.86 288.22 43.84C291.08 41.82 291.26 41.47 292.16 38.87C292.18 38.81 292.2 38.76 292.22 38.71C292.75 37.13 294.24 36 296 36C297.76 36 299.25 37.13 299.78 38.71C299.8 38.76 299.82 38.81 299.84 38.87C300.74 41.47 300.92 41.82 303.78 43.84C303.81 43.86 303.84 43.88 303.88 43.91C305.16 44.82 306 46.31 306 48Z" fill="#1D272C"/>
<path d="M292 35C293.657 35 295 33.2091 295 31C295 28.7909 293.657 27 292 27C290.343 27 289 28.7909 289 31C289 33.2091 290.343 35 292 35Z" fill="#1D272C"/>
<path d="M300 35C301.657 35 303 33.2091 303 31C303 28.7909 301.657 27 300 27C298.343 27 297 28.7909 297 31C297 33.2091 298.343 35 300 35Z" fill="#1D272C"/>
<path d="M305.5 41C306.881 41 308 39.6569 308 38C308 36.3431 306.881 35 305.5 35C304.119 35 303 36.3431 303 38C303 39.6569 304.119 41 305.5 41Z" fill="#1D272C"/>
<path d="M286.5 41C287.881 41 289 39.6569 289 38C289 36.3431 287.881 35 286.5 35C285.119 35 284 36.3431 284 38C284 39.6569 285.119 41 286.5 41Z" fill="#1D272C"/>
</g>
<g clip-path="url(#clip5_644_19)">
<path d="M349.608 31.5463L352.668 30.247C353.153 30.0458 353.724 30.2134 353.966 30.6326L355.922 34.0863C356.039 34.2875 356.048 34.5138 355.971 34.7234L354.906 37.431C354.818 37.6406 354.838 37.8753 354.954 38.0681L358.015 43.4667C358.131 43.6679 358.324 43.8187 358.567 43.8942L361.695 44.8163C361.937 44.8917 362.14 45.0426 362.247 45.2438L364.203 48.6975C364.436 49.1167 364.242 49.6113 363.758 49.8208L360.765 51.095C360.436 51.2375 360.048 51.204 359.758 51.0112C358.266 50.0472 353.743 45.4953 352.116 42.6284C351.729 41.9494 348.271 35.6706 349.065 32.1331C349.123 31.8816 349.327 31.672 349.588 31.5631L349.608 31.5463Z" stroke="#1D272C" stroke-width="2" stroke-linejoin="round"/>
<path d="M371.032 43.9609C371.032 42.8208 370.877 41.6556 370.586 40.4653C370.199 38.839 369.559 37.196 368.639 35.5865C367.719 33.977 366.615 32.5351 365.356 31.2777C364.446 30.3556 363.467 29.5425 362.431 28.8467" stroke="#1D272C" stroke-width="2" stroke-linecap="round" stroke-linejoin="round"/>
<path d="M362.964 34.0186C363.797 34.9323 364.543 35.955 365.182 37.0615C365.821 38.168 366.286 39.3081 366.615 40.4398" stroke="#1D272C" stroke-width="2" stroke-linecap="round" stroke-linejoin="round"/>
</g>
<g clip-path="url(#clip6_644_19)">
<path d="M424 38.2998C427.038 38.2998 429.5 35.8374 429.5 32.7998C429.5 29.7622 427.038 27.2998 424 27.2998C420.962 27.2998 418.5 29.7622 418.5 32.7998C418.5 35.8374 420.962 38.2998 424 38.2998Z" stroke="#1D272C" stroke-width="2" stroke-miterlimit="10"/>
<path d="M435 52.7002H413C413 46.6302 417.93 41.7002 424 41.7002C430.07 41.7002 435 46.6302 435 52.7002Z" stroke="#1D272C" stroke-width="2" stroke-linejoin="round"/>
</g>
<g clip-path="url(#clip7_644_19)">
<path d="M40 92C46.62 92 52 97.38 52 104C52 110.62 46.62 116 40 116C33.38 116 28 110.62 28 104C28 97.38 33.38 92 40 92ZM40 90C32.27 90 26 96.27 26 104C26 111.73 32.27 118 40 118C47.73 118 54 111.73 54 104C54 96.27 47.73 90 40 90Z" fill="#1D272C"/>
<path d="M32 104H48" stroke="#1D272C" stroke-width="2" stroke-linecap="round" stroke-linejoin="round"/>
<path d="M40 96V112" stroke="#1D272C" stroke-width="2" stroke-linecap="round" stroke-linejoin="round"/>
</g>
<g clip-path="url(#clip8_644_19)">
<path d="M115 103V117H109V106H99V117H93V103" stroke="#1D272C" stroke-width="2" stroke-linecap="round" stroke-linejoin="round"/>
<path d="M118 102L104 91L90 102" stroke="#1D272C" stroke-width="2" stroke-linecap="round" stroke-linejoin="round"/>
</g>
<g clip-path="url(#clip9_644_19)">
<path d="M168.508 90.6256L159.008 107.08L167.669 112.08L177.169 95.6256L168.508 90.6256Z" stroke="#1D272C" stroke-width="2" stroke-linecap="round" stroke-linejoin="round"/>
<path d="M165.065 110.575L174.565 94.125" stroke="#1D272C" stroke-width="2" stroke-linecap="round" stroke-linejoin="round"/>
<path d="M161.605 108.575L171.105 92.125" stroke="#1D272C" stroke-width="2" stroke-linecap="round" stroke-linejoin="round"/>
<path d="M167.665 112.075L158.835 117.375L159.005 107.075L167.665 112.075Z" stroke="#1D272C" stroke-width="2" stroke-linecap="round" stroke-linejoin="round"/>
</g>
<g clip-path="url(#clip10_644_19)">
<path d="M239 118L225 104L239 90" stroke="#1D272C" stroke-width="2" stroke-linecap="round" stroke-linejoin="round"/>
</g>
<g clip-path="url(#clip11_644_19)">
<path d="M296 118C303.732 118 310 111.732 310 104C310 96.268 303.732 90 296 90C288.268 90 282 96.268 282 104C282 111.732 288.268 118 296 118Z" stroke="#1D272C" stroke-width="2" stroke-linecap="round" stroke-linejoin="round"/>
<path d="M296 93V90" stroke="#1D272C" stroke-width="2" stroke-linecap="round" stroke-linejoin="round"/>
<path d="M296 115V118" stroke="#1D272C" stroke-width="2" stroke-linecap="round" stroke-linejoin="round"/>
<path d="M307 104H310" stroke="#1D272C" stroke-width="2" stroke-linecap="round" stroke-linejoin="round"/>
<path d="M285 104H282" stroke="#1D272C" stroke-width="2" stroke-linecap="round" stroke-linejoin="round"/>
<path d="M290 93.6099L289 91.8799" stroke="#1D272C" stroke-width="2" stroke-linecap="round" stroke-linejoin="round"/>
<path d="M302 114.39L303 116.12" stroke="#1D272C" stroke-width="2" stroke-linecap="round" stroke-linejoin="round"/>
<path d="M306.39 98L308.12 97" stroke="#1D272C" stroke-width="2" stroke-linecap="round" stroke-linejoin="round"/>
<path d="M285.61 110L283.88 111" stroke="#1D272C" stroke-width="2" stroke-linecap="round" stroke-linejoin="round"/>
<path d="M285.61 98L283.88 97" stroke="#1D272C" stroke-width="2" stroke-linecap="round" stroke-linejoin="round"/>
<path d="M306.39 110L308.12 111" stroke="#1D272C" stroke-width="2" stroke-linecap="round" stroke-linejoin="round"/>
<path d="M302 93.6099L303 91.8799" stroke="#1D272C" stroke-width="2" stroke-linecap="round" stroke-linejoin="round"/>
<path d="M290 114.39L289 116.12" stroke="#1D272C" stroke-width="2" stroke-linecap="round" stroke-linejoin="round"/>
<path d="M299 93L296 104" stroke="#1D272C" stroke-width="2" stroke-linecap="round" stroke-linejoin="round"/>
<path d="M303 109L296 104" stroke="#1D272C" stroke-width="3" stroke-linecap="round" stroke-linejoin="round"/>
</g>
<g clip-path="url(#clip12_644_19)">
<path d="M374.5 93V115H345.5V93L360 104L374.5 93Z" stroke="#1D272C" stroke-width="2" stroke-linejoin="round"/>
<path d="M345.5 93H374.5" stroke="#1D272C" stroke-width="2" stroke-linejoin="round"/>
</g>
<g clip-path="url(#clip13_644_19)">
<path d="M421.5 117C427.299 117 432 112.299 432 106.5C432 100.701 427.299 96 421.5 96C415.701 96 411 100.701 411 106.5C411 112.299 415.701 117 421.5 117Z" stroke="#1D272C" stroke-width="2" stroke-miterlimit="10"/>
<path d="M429 98.9997L433.78 94.2197" stroke="#1D272C" stroke-width="2" stroke-miterlimit="10"/>
<path d="M434.41 98.83L432.91 95.09L429.17 93.59L438 90L434.41 98.83Z" fill="#1D272C"/>
</g>
<g clip-path="url(#clip14_644_19)">
<path d="M48 161.5C48 162.6 47.78 163.66 47.37 164.62L47.21 164.97L40 179.5L32.79 164.97L32.63 164.62C32.22 163.66 32 162.6 32 161.5C32 157.08 35.58 153.5 40 153.5C44.42 153.5 48 157.08 48 161.5Z" stroke="#1D272C" stroke-width="2" stroke-linejoin="round"/>
<path d="M40 165C42.2091 165 44 163.209 44 161C44 158.791 42.2091 157 40 157C37.7909 157 36 158.791 36 161C36 163.209 37.7909 165 40 165Z" stroke="#1D272C" stroke-width="2" stroke-linejoin="round"/>
<path d="M43.05 177.85C44.81 178.28 46 179.08 46 180C46 181.27 43.71 182.33 40.75 182.48C40.5 182.49 40.25 182.5 40 182.5C39.75 182.5 39.5 182.49 39.25 182.48C36.29 182.33 34 181.27 34 180C34 179.08 35.18 178.28 36.95 177.85C36.97 177.84 37 177.84 37.03 177.83" stroke="#1D272C" stroke-width="2" stroke-linejoin="round"/>
</g>
<g clip-path="url(#clip15_644_19)">
<path d="M98.8105 176.789C98.9205 177.079 98.9905 177.329 99.1005 177.549C99.7505 178.749 100.49 179.909 101.05 181.149C101.5 182.139 101.02 183.059 100.04 183.429C99.3405 183.689 98.5005 183.189 98.0405 182.319C97.3205 180.969 96.5505 179.649 95.7905 178.329C95.6905 178.159 95.4805 178.059 95.2905 177.909C94.4905 179.409 93.7105 180.829 92.9605 182.279C92.2505 183.649 91.0605 183.899 90.1405 182.819C89.5905 182.179 89.7205 181.379 90.0105 180.739C90.6605 179.299 91.4705 177.939 92.1905 176.529C92.3505 176.209 92.4805 175.829 92.4905 175.469C92.5205 173.699 92.5305 171.939 92.4805 170.169C92.4705 169.799 92.2405 169.349 91.9705 169.099C91.2405 168.429 90.4105 167.869 89.6605 167.229C88.9305 166.609 88.8105 165.589 89.3605 164.939C90.0705 164.079 90.9405 164.009 91.8305 164.729C92.1205 164.959 92.3805 165.229 92.6605 165.469C93.7605 166.449 94.9405 167.019 96.5205 166.899C98.6305 166.739 100.76 166.889 102.88 166.849C104.3 166.829 105.32 167.739 106.46 168.329C107.87 169.049 109.23 169.859 110.57 170.709C110.9 170.919 111.22 171.419 111.22 171.799C111.27 175.059 111.25 178.319 111.22 181.579C111.22 182.579 110.32 183.509 109.47 183.489C108.58 183.469 107.86 182.599 107.86 181.529C107.86 180.139 107.85 178.759 107.86 177.369C107.86 176.919 107.74 176.659 107.22 176.669C104.56 176.689 101.89 176.679 99.2305 176.689C99.1505 176.689 99.0705 176.729 98.8305 176.789H98.8105Z" fill="#1D272C"/>
<path d="M112.18 159.74C112.01 160.32 112.27 160.87 112.95 161.32C113.36 161.59 113.7 162.01 113.95 162.44C114.77 163.84 116.19 164.36 117.51 165.05C118.36 165.5 119.05 166.09 118.99 167.13C118.94 168.11 117.91 169.23 116.81 169.31C115.79 169.39 114.74 169.21 113.72 169.04C113.07 168.93 112.53 168.81 112.04 169.41C111.58 169.98 111.05 169.92 110.42 169.53C108.9 168.59 107.34 167.71 105.76 166.86C104.7 166.28 104.63 165.93 105.29 164.94C106.55 163.03 107.74 161.07 108.93 159.12C109.18 158.72 109.27 158.22 109.49 157.8C109.76 157.28 110.13 156.78 110.8 156.97C111.5 157.17 112.03 157.65 112.17 158.41C112.24 158.78 112.18 159.17 112.18 159.74Z" fill="#1D272C"/>
<path d="M103.38 165.18L90.79 153.5" stroke="#1D272C" stroke-width="2" stroke-miterlimit="5" stroke-linecap="round"/>
</g>
<g clip-path="url(#clip16_644_19)">
<path d="M161 182L175 168L161 154" stroke="#1D272C" stroke-width="2" stroke-linecap="round" stroke-linejoin="round"/>
</g>
<g clip-path="url(#clip17_644_19)">
<path d="M219.31 167.405C218.12 165.875 217.53 163.835 217.91 161.665C218.42 158.815 220.66 156.495 223.47 155.945C226.71 155.305 229.79 157.005 231.15 159.425C231.88 160.725 232.1 160.725 232.83 159.425C234.19 156.995 237.28 155.305 240.51 155.945C243.32 156.495 245.57 158.815 246.07 161.665C246.45 163.835 245.86 165.875 244.67 167.405L233.84 179.285C232.9 180.505 231.07 180.505 230.13 179.285L219.31 167.405Z" stroke="#1D272C" stroke-width="2" stroke-linejoin="round"/>
</g>
<g clip-path="url(#clip18_644_19)">
<path d="M301.5 157L294.5 160L286.5 158V177L294.5 179L301.5 176L309.5 179V160L301.5 157Z" stroke="#1D272C" stroke-width="2" stroke-linecap="round" stroke-linejoin="round"/>
<path d="M294.5 179V160" stroke="#1D272C" stroke-width="2" stroke-linecap="round" stroke-linejoin="round"/>
<path d="M301.5 176V157" stroke="#1D272C" stroke-width="2" stroke-linecap="round" stroke-linejoin="round"/>
</g>
<path d="M377 181L369.317 173.316" stroke="#1D272C" stroke-width="2" stroke-miterlimit="10" stroke-linecap="round"/>
<path d="M369.168 173.168C367.614 174.721 365.699 175.69 363.698 176.084C362.347 176.36 360.952 176.36 359.59 176.084C357.59 175.69 355.674 174.721 354.121 173.168C349.96 169.007 349.96 162.281 354.121 158.121C358.281 153.96 365.007 153.96 369.168 158.121C373.329 162.281 373.329 169.018 369.168 173.168Z" stroke="#1D272C" stroke-width="2" stroke-miterlimit="10"/>
<g clip-path="url(#clip19_644_19)">
<path d="M442 161L428 175L414 161" stroke="#1D272C" stroke-width="2" stroke-linecap="round" stroke-linejoin="round"/>
</g>
<g clip-path="url(#clip20_644_19)">
<path d="M44.04 238.335C43.71 238.445 43.37 238.545 43.01 238.625C41.37 239.035 39.4 239.305 37.28 239.355C37.01 239.365 36.74 239.365 36.46 239.365C30.13 239.365 25 237.535 25 235.275" stroke="#1D272C" stroke-width="2" stroke-linecap="round" stroke-linejoin="round"/>
<path d="M39.16 235.975H39.15C38.29 236.045 37.39 236.085 36.46 236.085C33.91 236.085 31.55 235.785 29.65 235.275C26.83 234.535 25 233.345 25 231.995C25 230.165 28.35 228.625 32.97 228.095L32.83 228.385" stroke="#1D272C" stroke-width="2" stroke-linecap="round" stroke-linejoin="round"/>
<path d="M36.94 230.415C35.97 229.565 35.23 228.725 34.75 227.955" stroke="#1D272C" stroke-width="2" stroke-linecap="round" stroke-linejoin="round"/>
<path d="M43.1096 235.325H43.0996" stroke="#1D272C" stroke-width="2" stroke-linecap="round" stroke-linejoin="round"/>
<path d="M25 231.995V235.275" stroke="#1D272C" stroke-width="2" stroke-linecap="round" stroke-linejoin="round"/>
<path d="M29.9102 238.545V235.355" stroke="#1D272C" stroke-width="2" stroke-linecap="round" stroke-linejoin="round"/>
<path d="M37.2803 236.095V239.365" stroke="#1D272C" stroke-width="2" stroke-linecap="round" stroke-linejoin="round"/>
<path d="M53.3897 238.545C52.3897 240.575 46.9697 239.945 41.2997 237.135C35.6197 234.335 31.8297 230.415 32.8397 228.385" stroke="#1D272C" stroke-width="2" stroke-linecap="round" stroke-linejoin="round"/>
<path d="M54.8396 235.605C54.2396 236.805 52.1096 237.075 49.2796 236.515C49.1696 236.495 49.0596 236.465 48.9396 236.445C48.5296 236.355 48.1096 236.245 47.6796 236.125C46.8796 235.905 46.0396 235.615 45.1796 235.275C44.9096 235.175 44.6396 235.065 44.3696 234.945C43.8296 234.715 43.2896 234.465 42.7396 234.195C40.5596 233.115 38.6596 231.875 37.1996 230.645C37.1096 230.565 37.0196 230.485 36.9396 230.415C35.9696 229.565 35.2296 228.725 34.7496 227.955C34.1396 226.985 33.9496 226.115 34.2796 225.445C35.2796 223.425 40.6896 224.055 46.3696 226.855C52.0496 229.665 55.8396 233.575 54.8396 235.605Z" stroke="#1D272C" stroke-width="2" stroke-linecap="round" stroke-linejoin="round"/>
<path d="M32.8301 228.384L32.9701 228.094L34.2801 225.444" stroke="#1D272C" stroke-width="2" stroke-linecap="round" stroke-linejoin="round"/>
<path d="M54.8396 235.604L53.3896 238.544" stroke="#1D272C" stroke-width="2" stroke-linecap="round" stroke-linejoin="round"/>
<path d="M35.79 233.505L37.2 230.635" stroke="#1D272C" stroke-width="2" stroke-linecap="round" stroke-linejoin="round"/>
<path d="M43.4793 234.564L42.0293 237.494" stroke="#1D272C" stroke-width="2" stroke-linecap="round" stroke-linejoin="round"/>
<path d="M47.5 239.374L48.95 236.444" stroke="#1D272C" stroke-width="2" stroke-linecap="round" stroke-linejoin="round"/>
</g>
<path d="M96 246H112" stroke="#1D272C" stroke-width="2" stroke-linecap="round" stroke-linejoin="round"/>
<path d="M96 218H112" stroke="#1D272C" stroke-width="2" stroke-linecap="round" stroke-linejoin="round"/>
<path d="M110.28 218C111.07 221.04 110.97 223.71 110 226C108.74 228.96 106.37 230.48 104 232C101.63 233.52 99.2601 235.04 98.0001 238C97.0301 240.29 96.9301 242.96 97.7201 246" stroke="#1D272C" stroke-width="2" stroke-linecap="round" stroke-linejoin="round"/>
<path d="M110.28 246C111.07 242.96 110.97 240.29 110 238C108.74 235.04 106.37 233.52 104 232C101.63 230.48 99.2601 228.96 98.0001 226C97.0301 223.71 96.9301 221.04 97.7201 218" stroke="#1D272C" stroke-width="2" stroke-linecap="round" stroke-linejoin="round"/>
<path d="M100 243H108L104 239L100 243Z" fill="#1D272C" stroke="#1D272C" stroke-width="2" stroke-linecap="round" stroke-linejoin="round"/>
<path d="M102 226H106L104 228L102 226Z" fill="#1D272C" stroke="#1D272C" stroke-width="2" stroke-linecap="round" stroke-linejoin="round"/>
<path d="M162 236V240C162 242.75 164.25 245 167 245H174C176.75 245 179 242.75 179 240V224C179 221.25 176.75 219 174 219H167C164.25 219 162 221.25 162 224V228" stroke="black" stroke-width="2" stroke-linecap="round" stroke-linejoin="round"/>
<path d="M155 232H173" stroke="black" stroke-width="2" stroke-linecap="round" stroke-linejoin="round"/>
<path d="M168 228L173 232" stroke="black" stroke-width="2" stroke-linecap="round" stroke-linejoin="round"/>
<path d="M168 236L173 232" stroke="black" stroke-width="2" stroke-linecap="round" stroke-linejoin="round"/>
<path d="M232 227C234.209 227 236 225.209 236 223C236 220.791 234.209 219 232 219C229.791 219 228 220.791 228 223C228 225.209 229.791 227 232 227Z" fill="#231F20" stroke="#231F20" stroke-width="2" stroke-miterlimit="10" stroke-linecap="round"/>
<path d="M236 242V239H233V232H236V229.98C234.76 229.36 233.41 229 232 229C225.93 229 221 235.27 221 243H243C243 242.66 242.98 242.33 242.96 242H236Z" fill="#231F20"/>
<path d="M243 235H240V232H239V235H236V236H239V239H240V236H243V235Z" fill="#ED1C24" stroke="#231F20" stroke-width="2" stroke-miterlimit="10" stroke-linecap="round"/>
<path d="M283 232C292 221.33 300 221.33 309 232" stroke="#231F20" stroke-width="2" stroke-miterlimit="10" stroke-linecap="round"/>
<path d="M283 232C292 242.67 300 242.67 309 232" stroke="#231F20" stroke-width="2" stroke-miterlimit="10" stroke-linecap="round"/>
<path d="M296 236C298.209 236 300 234.209 300 232C300 229.791 298.209 228 296 228C293.791 228 292 229.791 292 232C292 234.209 293.791 236 296 236Z" stroke="#231F20" stroke-width="2" stroke-miterlimit="10"/>
<path d="M373 232C371.59 230.33 370.21 228.92 368.85 227.78" stroke="#231F20" stroke-width="2" stroke-miterlimit="10" stroke-linecap="round"/>
<path d="M347 232C353.79 223.95 360.01 221.97 366.52 226.07" stroke="#231F20" stroke-width="2" stroke-miterlimit="10" stroke-linecap="round"/>
<path d="M353.48 237.93C351.36 236.6 349.21 234.62 347 232" stroke="#231F20" stroke-width="2" stroke-miterlimit="10" stroke-linecap="round"/>
<path d="M356.19 239.28C361.74 241.36 367.16 238.93 373 232" stroke="#231F20" stroke-width="2" stroke-miterlimit="10" stroke-linecap="round"/>
<path d="M360 227C357.24 227 355 229.24 355 232C355 233.29 355.49 234.47 356.3 235.36L357.78 234.01C357.3 233.48 357 232.78 357 232C357 230.34 358.34 229 360 229C360.88 229 361.68 229.38 362.22 229.99L363.7 228.64C362.79 227.63 361.47 227 360 227Z" fill="#231F20"/>
<path d="M365 232C365 234.76 362.76 237 360 237C359.6 237 359.22 236.95 358.85 236.86L361.15 234.77H361.16C361.79 234.51 362.32 234.03 362.64 233.42L364.94 231.33C364.97 231.55 364.99 231.78 364.99 232.01L365 232Z" fill="#231F20"/>
<path d="M349 242L356.3 235.36L357.78 234.01L362.22 229.99L363.7 228.64L371 222" stroke="#231F20" stroke-width="2" stroke-miterlimit="10"/>
<path d="M435.63 223.77L422.88 238.64C422.39 239.21 421.53 239.28 420.96 238.79L412.69 231.7C412.12 231.21 411.26 231.28 410.77 231.85L409.82 232.96C409.33 233.53 409.39 234.39 409.96 234.88C412.42 236.99 417.89 241.68 420.3 243.74C420.87 244.23 421.73 244.16 422.22 243.59L437.69 225.54C438.18 224.97 438.11 224.11 437.54 223.62C436.97 223.13 436.11 223.2 435.62 223.77H435.63Z" fill="#231F20"/>
<path d="M44.28 309H40C32.82 309 27 303.18 27 296C27 288.82 32.82 283 40 283C47.18 283 53 288.82 53 296V306.43C53 307.85 51.85 309 50.43 309H44.27" stroke="#231F20" stroke-width="2" stroke-linecap="round" stroke-linejoin="round"/>
<path d="M34 296H46" stroke="#231F20" stroke-width="2" stroke-linecap="round" stroke-linejoin="round"/>
<path d="M34 290H46" stroke="#231F20" stroke-width="2" stroke-linecap="round" stroke-linejoin="round"/>
<path d="M34 302H46" stroke="#231F20" stroke-width="2" stroke-linecap="round" stroke-linejoin="round"/>
<g clip-path="url(#clip21_644_19)">
<mask id="mask0_644_19" style="mask-type:luminance" maskUnits="userSpaceOnUse" x="84" y="276" width="40" height="40">
<path d="M124 276H84V316H124V276Z" fill="white"/>
</mask>
<g mask="url(#mask0_644_19)">
<path d="M118 302L104 288L90 302" stroke="black" stroke-width="2" stroke-linecap="round" stroke-linejoin="round"/>
</g>
</g>
<path d="M171 286V297C171 298.66 169.66 300 168 300C166.34 300 165 298.66 165 297V286C165 284.34 166.34 283 168 283C169.66 283 171 284.34 171 286Z" stroke="#231F20" stroke-width="2" stroke-linecap="round" stroke-linejoin="round"/>
<path d="M160 297C160 301.42 163.58 305 168 305C172.42 305 176 301.42 176 297" stroke="#231F20" stroke-width="2" stroke-linecap="round" stroke-linejoin="round"/>
<path d="M164 309C164 306.79 165.79 305 168 305C170.21 305 172 306.79 172 309" stroke="#231F20" stroke-width="2" stroke-linecap="round" stroke-linejoin="round"/>
<path d="M232 282C224.28 282 218 288.28 218 296C218 303.72 224.28 310 232 310H242.43C244.4 310 246 308.4 246 306.43V296C246 288.28 239.72 282 232 282ZM238 303H228C227.45 303 227 302.55 227 302C227 301.45 227.45 301 228 301H238C238.55 301 239 301.45 239 302C239 302.55 238.55 303 238 303ZM238 297H226C225.45 297 225 296.55 225 296C225 295.45 225.45 295 226 295H238C238.55 295 239 295.45 239 296C239 296.55 238.55 297 238 297ZM238 291H226C225.45 291 225 290.55 225 290C225 289.45 225.45 289 226 289H238C238.55 289 239 289.45 239 290C239 290.55 238.55 291 238 291Z" fill="#231F20"/>
<path d="M294.23 306C300.73 306 306 300.73 306 294.23C306 287.73 300.73 282.46 294.23 282.46C287.73 282.46 282.46 287.73 282.46 294.23C282.46 300.73 287.73 306 294.23 306Z" stroke="#231F20" stroke-width="2" stroke-linecap="round" stroke-linejoin="round"/>
<path d="M306.61 306.61L303 303" stroke="#231F20" stroke-width="2" stroke-linecap="round" stroke-linejoin="round"/>
<path d="M364.69 300V304C364.69 306.75 362.61 309 360.07 309H353.61C351.07 309 348.99 306.75 348.99 304V288C348.99 285.25 351.07 283 353.61 283H360.07C362.61 283 364.69 285.25 364.69 288V292" stroke="#231F20" stroke-width="2" stroke-linecap="round" stroke-linejoin="round"/>
<path d="M356.38 296H373" stroke="black" stroke-width="2" stroke-linecap="round" stroke-linejoin="round"/>
<path d="M368.38 292L373 296" stroke="black" stroke-width="2" stroke-linecap="round" stroke-linejoin="round"/>
<path d="M368.38 300L373 296" stroke="black" stroke-width="2" stroke-linecap="round" stroke-linejoin="round"/>
<defs>
<clipPath id="clip0_644_19">
<rect width="30" height="29" fill="white" transform="translate(25 25.5)"/>
</clipPath>
<clipPath id="clip1_644_19">
<rect width="26" height="26" fill="white" transform="translate(91 27)"/>
</clipPath>
<clipPath id="clip2_644_19">
<rect width="28" height="24" fill="white" transform="translate(154 28)"/>
</clipPath>
<clipPath id="clip3_644_19">
<rect width="28" height="28" fill="white" transform="translate(218 26)"/>
</clipPath>
<clipPath id="clip4_644_19">
<rect width="24" height="26" fill="white" transform="translate(284 27)"/>
</clipPath>
<clipPath id="clip5_644_19">
<rect width="24" height="24" fill="white" transform="translate(348 28)"/>
</clipPath>
<clipPath id="clip6_644_19">
<rect width="24" height="27.4" fill="white" transform="translate(412 26.2998)"/>
</clipPath>
<clipPath id="clip7_644_19">
<rect width="28" height="28" fill="white" transform="translate(26 90)"/>
</clipPath>
<clipPath id="clip8_644_19">
<rect width="30" height="28" fill="white" transform="translate(89 90)"/>
</clipPath>
<clipPath id="clip9_644_19">
<rect width="20.33" height="28.75" fill="white" transform="translate(157.835 89.625)"/>
</clipPath>
<clipPath id="clip10_644_19">
<rect width="16" height="30" fill="white" transform="translate(224 89)"/>
</clipPath>
<clipPath id="clip11_644_19">
<rect width="30" height="30" fill="white" transform="translate(281 89)"/>
</clipPath>
<clipPath id="clip12_644_19">
<rect width="31" height="24" fill="white" transform="translate(344.5 92)"/>
</clipPath>
<clipPath id="clip13_644_19">
<rect width="28" height="28" fill="white" transform="translate(410 90)"/>
</clipPath>
<clipPath id="clip14_644_19">
<rect width="18" height="31" fill="white" transform="translate(31 152.5)"/>
</clipPath>
<clipPath id="clip15_644_19">
<rect width="30" height="31" fill="white" transform="translate(89 152.5)"/>
</clipPath>
<clipPath id="clip16_644_19">
<rect width="16" height="30" fill="white" transform="translate(160 153)"/>
</clipPath>
<clipPath id="clip17_644_19">
<rect width="30.4" height="26.39" fill="white" transform="translate(216.8 154.805)"/>
</clipPath>
<clipPath id="clip18_644_19">
<rect width="25" height="24" fill="white" transform="translate(285.5 156)"/>
</clipPath>
<clipPath id="clip19_644_19">
<rect width="30" height="16" fill="white" transform="translate(413 160)"/>
</clipPath>
<clipPath id="clip20_644_19">
<rect width="32" height="17.47" fill="white" transform="translate(24 223.265)"/>
</clipPath>
<clipPath id="clip21_644_19">
<rect width="32" height="32" fill="white" transform="translate(88 280)"/>
</clipPath>
</defs>
</svg>
