<?xml version="1.0" encoding="UTF-8"?>
<svg id="Layer_1" xmlns="http://www.w3.org/2000/svg" version="1.1" xmlns:xlink="http://www.w3.org/1999/xlink" viewBox="0 0 800 800">
  <!-- Generator: Adobe Illustrator 29.0.1, SVG Export Plug-In . SVG Version: 2.1.0 Build 192)  -->
  <defs>
    <style>
      .st0 {
        fill: #fff;
        fill-rule: evenodd;
      }

      .st1 {
        fill: #e0e0e0;
      }

      .st2 {
        fill: url(#linear-gradient);
      }
    </style>
    <linearGradient id="linear-gradient" x1="414.2" y1="-190.4" x2="414.2" y2="978.7" gradientTransform="translate(129.5 652.9) scale(.7 -.7)" gradientUnits="userSpaceOnUse">
      <stop offset="0" stop-color="#20b038"/>
      <stop offset="1" stop-color="#60d66a"/>
    </linearGradient>
  </defs>
  <path class="st1" d="M682.2,116.3C607.3,41.3,507.7,0,401.7,0,183.1,0,5.2,177.8,5.1,396.4c0,69.9,18.2,138.1,52.9,198.2L1.8,800l210.2-55.1c57.9,31.6,123.1,48.2,189.5,48.3h.2c218.5,0,396.5-177.9,396.5-396.4,0-105.9-41.2-205.5-116-280.5h0ZM401.7,726.2h-.1c-59.2,0-117.2-15.9-167.8-45.9l-12-7.1-124.7,32.7,33.3-121.6-7.8-12.5c-33-52.5-50.4-113.1-50.4-175.3,0-181.7,147.9-329.5,329.7-329.5,88,0,170.8,34.4,233,96.6,62.2,62.3,96.5,145.1,96.4,233.1,0,181.7-147.9,329.5-329.6,329.5Z"/>
  <path class="st2" d="M20,777.2l53.7-196c-33.1-57.4-50.5-122.5-50.5-189.1C23.2,183.5,193,13.8,401.6,13.8c101.2,0,196.2,39.4,267.7,110.9,71.5,71.5,110.8,166.5,110.7,267.6,0,208.6-169.9,378.3-378.4,378.3s0,0,0,0h-.2c-63.3,0-125.6-15.9-180.8-46l-200.6,52.6h0Z"/>
  <path class="st0" d="M303.7,228.1c-7.3-16.3-15.1-16.6-22-16.9-5.7-.2-12.2-.2-18.8-.2s-17.1,2.5-26.1,12.3c-9,9.8-34.3,33.5-34.3,81.7s35.1,94.8,40,101.3c4.9,6.5,67.8,108.6,167.3,147.8,82.7,32.6,99.6,26.1,117.5,24.5s57.9-23.7,66.1-46.6c8.2-22.9,8.2-42.5,5.7-46.6-2.4-4.1-9-6.5-18.8-11.4s-57.9-28.6-66.9-31.9-15.5-4.9-22,4.9c-6.5,9.8-25.3,31.9-31,38.4-5.7,6.5-11.4,7.4-21.2,2.5-9.8-4.9-41.3-15.2-78.8-48.6-29.1-26-48.8-58-54.5-67.8-5.7-9.8-.6-15.1,4.3-20,4.4-4.4,9.8-11.4,14.7-17.2,4.9-5.7,6.5-9.8,9.8-16.3,3.3-6.5,1.6-12.3-.8-17.2s-21.5-53.3-30.2-72.7h0Z"/>
</svg>