<?xml version="1.0" encoding="UTF-8"?>
<svg id="Layer_1" xmlns="http://www.w3.org/2000/svg" version="1.1" viewBox="0 0 32 32">
  <!-- Generator: Adobe Illustrator 29.0.1, SVG Export Plug-In . SVG Version: 2.1.0 Build 192)  -->
  <defs>
    <style>
      .st0 {
        fill: #fff;
      }

      .st1 {
        stroke-width: 1.5px;
      }

      .st1, .st2 {
        fill: none;
        stroke: #f45c19;
        stroke-miterlimit: 10;
      }

      .st2 {
        stroke-width: 2px;
      }
    </style>
  </defs>
  <polygon class="st2" points="30 10 16 28 2 10 7 3 25 3 30 10"/>
  <g>
    <line class="st1" x1="11" y1="11" x2="2" y2="10"/>
    <line class="st1" x1="21" y1="11" x2="30" y2="10"/>
    <line class="st1" x1="11" y1="11" x2="7" y2="3"/>
    <line class="st1" x1="21" y1="11" x2="11" y2="11"/>
    <line class="st1" x1="25" y1="3" x2="21" y2="11"/>
    <line class="st1" x1="16" y1="3" x2="11" y2="11"/>
    <line class="st1" x1="21" y1="11" x2="16" y2="3"/>
    <line class="st1" x1="11" y1="11" x2="16" y2="28"/>
    <line class="st1" x1="16" y1="28" x2="21" y2="11"/>
  </g>
  <polygon class="st0" points="42 -18 36 -16 35 -10 33 -16 27 -17 33 -19 34 -25 36 -19 42 -18"/>
  <polygon id="star" class="st0" points="31 3 26 8 28 15 23 10 16 12 21 7 19 0 24 5 31 3"/>
</svg>