<?xml version="1.0" encoding="UTF-8"?>
<svg xmlns="http://www.w3.org/2000/svg" version="1.1" xmlns:xlink="http://www.w3.org/1999/xlink" viewBox="0 0 48 48">
  <!-- Generator: Adobe Illustrator 29.0.1, SVG Export Plug-In . SVG Version: 2.1.0 Build 192)  -->
  <defs>
    <style>
      .st0 {
        fill: #30d5c8;
      }

      .st1 {
        fill: #fff;
      }
 </style>
  </defs>
      <path class="st0" d="M43.61,33.98c1.925-3.473,2.562-7.092,2.362-11.113-.555-11.129-9.614-20.227-20.741-20.833C11.729,1.298.694,12.746,2.125,26.38c1.091,10.39,9.61,18.697,20.023,19.545,4.553.37,8.816-.669,12.482-2.655,4.192-2.27,7.784,1.86,10.431,2.891.774.301,1.548-.432,1.304-1.225,0,0-3.875-8.936-2.755-10.956Z"/>
      <path class="st1" d="M34,36c-2.31,1.16-6.64.52-10,0-.2-.03-3.895-.518-6-.81v-12.19s5.79-4.42,4-8c-2-4,3-5,4-2,.93,2.79.04,6.18,2.1,6.94,2.61.95,8.54-.68,9.7,1.27.14.23.17.45.2.79.04.5,0,12-4,14Z"/>
      <path class="st1" d="M17,23.652v10.696c0,.905-.8,1.652-1.77,1.652h-2.46c-.97,0-1.77-.747-1.77-1.652v-10.696c0-.905.8-1.652,1.77-1.652h2.46c.97,0,1.77.747,1.77,1.652Z"/>
</svg>