<?xml version="1.0" encoding="utf-8"?>
<!-- Generator: Adobe Illustrator 28.2.0, SVG Export Plug-In . SVG Version: 6.00 Build 0)  -->
<svg version="1.1" xmlns="http://www.w3.org/2000/svg" xmlns:xlink="http://www.w3.org/1999/xlink" x="0px" y="0px"
	 viewBox="0 0 28 28" style="enable-background:new 0 0 28 28;" xml:space="preserve">
<style type="text/css">
	.st0{fill:#A57C52;stroke:#000000;}
	.st1{fill:#652C8B;stroke:#000000;}
	.st2{fill:#1A70AD;stroke:#000000;}
	.st3{fill:#169133;stroke:#000000;}
	.st4{fill:#FA413B;stroke:#000000;}
	.st5{fill:#726357;stroke:#000000;stroke-linecap:round;stroke-linejoin:round;}
	.st6{fill:#FFFFFF;stroke:#000000;}
</style>
<g id="Guides">
</g>
<g id="Crop_Marks">
	<g>
		<path class="st0" d="M26.86,17.19c-1.65,6.78-7.72,11.09-11.64,7.77c-2.27-1.93-0.26-6.55-2.13-9.38
			c-1.41-2.13-6.63-2.56-8.62-3.87C-0.74,8.3,8.85-0.38,14.61,1.03S28.51,10.41,26.86,17.19z"/>
	</g>
	<circle class="st1" cx="8.87" cy="8.81" r="2.5"/>
	<circle class="st2" cx="16" cy="6" r="2.5"/>
	<circle class="st3" cx="23" cy="14" r="2.5"/>
	<circle class="st4" cx="19" cy="21" r="2.5"/>
</g>
<g id="Layer_3">
	<path class="st5" d="M27.75,4.03l-16.67,13.9c-0.35,0.29-1.25,0.5-1.52,0.15c-0.35-0.46-0.87-0.68-1.42-0.91
		c-0.48-0.2-0.24-1.12,0.16-1.39L26.64,3.1c0.33-0.23,0.83-0.19,1.12,0.08l0.02,0.02C28.03,3.45,28.02,3.8,27.75,4.03z"/>
	<path class="st6" d="M10.78,20.22c0,2.11-1.5,2.58-2.51,3.86c-0.69,0.88-0.94,1.24-1.58,2.96c-2.67-3.32-3.82-5.65-3.68-7.82
		c0.15-2.3,2.11-3.05,3.1-3.17C6.29,16.01,6.48,16,6.65,16c0.1,0,0.2,0,0.31,0.01c1.44,0.12,3.15,1.03,3.66,2.97
		C10.73,19.36,10.78,19.77,10.78,20.22z"/>
</g>
</svg>
