<?xml version="1.0" encoding="UTF-8"?>
<svg id="Layer_1" xmlns="http://www.w3.org/2000/svg" version="1.1" xmlns:xlink="http://www.w3.org/1999/xlink" viewBox="0 0 40 40">
  <!-- Generator: Adobe Illustrator 29.0.1, SVG Export Plug-In . SVG Version: 2.1.0 Build 192)  -->
  <defs>
    <style>
      .st0 {
        fill: red;
      }

      .st1 {
        display: none;
      }

      .st2 {
        fill: url(#linear-gradient);
      }
    </style>
    <linearGradient id="linear-gradient" x1="19.996" y1="38.144" x2="19.996" y2="2.356" gradientUnits="userSpaceOnUse">
      <stop offset="0" stop-color="red"/>
      <stop offset=".2" stop-color="#ff0202"/>
      <stop offset=".335" stop-color="#ff0b0b"/>
      <stop offset=".45" stop-color="#ff1a1a"/>
      <stop offset=".554" stop-color="#ff3030"/>
      <stop offset=".651" stop-color="#ff4c4c"/>
      <stop offset=".742" stop-color="#ff6e6e"/>
      <stop offset=".83" stop-color="#ff9696"/>
      <stop offset=".914" stop-color="#ffc5c5"/>
      <stop offset=".992" stop-color="#fff9f9"/>
      <stop offset="1" stop-color="#fff"/>
    </linearGradient>
  </defs>
  <image class="st1" width="512" height="512" transform="scale(.078)" xlink:href="../../../../Downloads/heart.png"/>
  <g>
    <path class="st2" d="M20.033,38.75c-.517,0-1.021-.241-1.384-.662-3.452-4.007-7.048-7.351-10.22-10.301-3.59-3.338-6.426-5.976-7.258-7.98-.382-.92-1.009-2.8-.921-5.062C.452,9.527,4.64,2.25,11,2.25c3.484,0,6.769,1.979,8.787,5.292l.213.351.213-.351c2.018-3.313,5.302-5.292,8.787-5.292,5.928,0,10.75,5.601,10.75,12.484,0,1.296-.238,2.622-.241,2.635-.002.012-.237,1.266-.683,2.445-.76,2.013-3.642,4.677-7.289,8.049-3.171,2.931-6.765,6.253-10.187,10.225-.338.43-.803.662-1.317.662Z"/>
    <path class="st0" d="M29,2.5c5.79,0,10.5,5.488,10.5,12.234,0,1.272-.235,2.577-.237,2.588-.002.012-.234,1.246-.671,2.403-.739,1.957-3.601,4.602-7.224,7.952-3.176,2.936-6.776,6.264-10.222,10.264-.283.36-.678.558-1.114.558-.444,0-.879-.21-1.194-.576-3.462-4.018-7.063-7.367-10.24-10.321-3.568-3.317-6.385-5.938-7.197-7.892-.374-.901-.988-2.742-.902-4.957C.698,9.637,4.789,2.5,11,2.5c3.396,0,6.601,1.934,8.573,5.172l.427.701.427-.701c1.972-3.239,5.177-5.172,8.573-5.172M29,2c-3.72,0-7.01,2.144-9,5.412-1.99-3.269-5.28-5.412-9-5.412C4.754,2,.219,9.085,0,14.734c-.096,2.474.644,4.455.94,5.168,1.585,3.817,10.06,9.689,17.52,18.348.426.494,1.003.749,1.573.749.559,0,1.111-.245,1.507-.749,7.46-8.659,16.081-14.538,17.52-18.348.459-1.215.695-2.488.695-2.489s.245-1.344.245-2.68c0-7.036-4.92-12.734-11-12.734h0Z"/>
  </g>
</svg>