<?xml version="1.0" encoding="UTF-8"?>
<svg id="Layer_1" xmlns="http://www.w3.org/2000/svg" version="1.1" viewBox="0 0 32 32">
  <!-- Generator: Adobe Illustrator 29.0.1, SVG Export Plug-In . SVG Version: 2.1.0 Build 192)  -->
  <defs>
    <style>
      .st0 {
        fill: #5cbdea;
      }
    </style>
  </defs>
  <polygon class="st0" points="13.13 16.26 7.25 19.88 7.25 12.73 13.13 16.26"/>
  <path class="st0" d="M17.66,16.98l7.05,4.35c-.15.54-.64.92-1.21.92h-15c-.57,0-1.06-.38-1.21-.92l7.05-4.35,1.66.99,1.66-.99Z"/>
  <path class="st0" d="M24.75,11v.28l-8.75,5.25-8.75-5.25v-.28c0-.69.56-1.25,1.25-1.25h15c.69,0,1.25.56,1.25,1.25Z"/>
  <polygon class="st0" points="18.87 16.26 24.75 12.73 24.75 19.88 18.87 16.26"/>
  <path class="st0" d="M16,0C7.16,0,0,7.16,0,16s7.16,16,16,16,16-7.16,16-16S24.84,0,16,0ZM26,21.02c-.01,1.37-1.12,2.48-2.5,2.48h-15c-1.37,0-2.49-1.11-2.5-2.48v-10.02c0-1.38,1.12-2.5,2.5-2.5h15c1.38,0,2.5,1.12,2.5,2.5v10.02Z"/>
</svg>