<?xml version="1.0" encoding="UTF-8"?>
<svg id="Layer_1" xmlns="http://www.w3.org/2000/svg" version="1.1" viewBox="0 0 28 28">
  <!-- Generator: Adobe Illustrator 29.0.1, SVG Export Plug-In . SVG Version: 2.1.0 Build 192)  -->
  <defs>
    <style>
      .st0 {
        fill: #0a66c2;
      }
    </style>
  </defs>
  <path class="st0" d="M26,6.79c-1.18-1.96-2.83-3.61-4.79-4.79-2.11-1.27-4.58-2-7.21-2s-5.1.73-7.21,2c-1.96,1.18-3.61,2.83-4.79,4.79C.73,8.9,0,11.37,0,14s.73,5.1,2,7.21c1.18,1.96,2.83,3.61,4.79,4.79,2.11,1.27,4.58,2,7.21,2s5.1-.73,7.21-2c1.96-1.18,3.61-2.83,4.79-4.79,1.27-2.11,2-4.58,2-7.21s-.73-5.1-2-7.21ZM9.41,22.09h-3.6v-10.84h3.6v10.84ZM7.61,9.77h-.02c-1.21,0-1.99-.83-1.99-1.87,0-1.06.81-1.87,2.04-1.87s1.99.81,2.01,1.87c0,1.04-.78,1.87-2.04,1.87ZM22.37,22.09h-3.6v-5.8c0-1.45-.52-2.45-1.83-2.45-.99,0-1.58.67-1.84,1.32-.1.23-.12.55-.12.88v6.05h-3.6s.04-9.82,0-10.84h3.6v1.54c.48-.74,1.33-1.79,3.24-1.79,2.37,0,4.15,1.54,4.15,4.88v6.21Z"/>
</svg>