<?xml version="1.0" encoding="UTF-8"?>
<svg id="Layer_1" xmlns="http://www.w3.org/2000/svg" version="1.1" viewBox="0 0 32 32">
  <!-- Generator: Adobe Illustrator 29.0.1, SVG Export Plug-In . SVG Version: 2.1.0 Build 192)  -->
  <defs>
    <style>
      .st0 {
        fill: #c873ab;
      }
    </style>
  </defs>
  <path class="st0" d="M12.2,2C20,0,27.9,4.5,30,12.2s-2.5,15.7-10.3,17.8c-7.7,2.1-15.7-2.5-17.8-10.3C0,12,4.5,4.1,12.2,2M11.9.5C3.4,2.8-1.7,11.6.5,20.1c2.3,8.5,11.1,13.6,19.6,11.3s13.6-11.1,11.3-19.6C29.2,3.4,20.4-1.7,11.9.5h0Z"/>
  <path class="st0" d="M15.5,28.9c-2.2,0-4.2-1.5-4.8-3.7l-3.9-14.5c-.3-1.3-.2-2.6.5-3.8.7-1.2,1.7-2,3-2.3l4.8-1.3c1.3-.3,2.6-.2,3.8.5,1.2.7,2,1.7,2.3,3l3.9,14.5c.3,1.3.2,2.6-.5,3.8-.7,1.2-1.7,2-3,2.3l-4.8,1.3c-.4.1-.9.2-1.3.2ZM16.5,5.1c-.3,0-.5,0-.8.1l-4.8,1.3c-.8.2-1.4.7-1.8,1.4-.4.7-.5,1.5-.3,2.3l3.9,14.5c.2.8.7,1.4,1.4,1.8s1.5.5,2.3.3l4.8-1.3c1.6-.4,2.5-2.1,2.1-3.7l-3.9-14.5c-.4-1.3-1.6-2.2-2.9-2.2Z"/>
  <rect class="st0" x="7.9" y="9.7" width="13" height="1" transform="translate(-2.2 4.1) rotate(-15.1)"/>
  <rect class="st0" x="11.1" y="21.3" width="13" height="1" transform="translate(-5.1 5.3) rotate(-15)"/>
  <circle class="st0" cx="18.2" cy="24.2" r="1.5"/>
  <path class="st0" d="M11.4,9.2c-.3,0-.6-.2-.7-.6-.1-.4.1-.8.5-.9l4.8-1.3c.4-.1.8.1.9.5.1.4-.1.8-.5.9l-4.8,1.3c0,0-.1,0-.2,0Z"/>
</svg>