<?xml version="1.0" encoding="UTF-8"?>
<svg id="Layer_1" data-name="Layer 1" xmlns="http://www.w3.org/2000/svg" viewBox="0 0 461.14 335.31">
  <defs>
    <style>
      .cls-1 {
        fill: #d8eafd;
        stroke: #add3fb;
        stroke-miterlimit: 10;
        stroke-width: .25px;
      }
    </style>
  </defs>
  <g id="background">
    <g>
      <g>
        <path class="cls-1" d="M32.16,332.93c-1.05,1.95-3.54,2.81-5.57,1.9-.4-.18-.74-.41-1.05-.68-2-1.83-2.25-1.94-5.06-2.26-.42-.05-.83-.16-1.23-.34-2.03-.9-2.82-3.22-1.77-5.18.64-1.2,1.83-1.98,3.11-2.2.04,0,.07-.01.1-.02,2.87-.49,3.13-.68,4.78-2.23.04-.04.07-.06.1-.09.99-.94,2.51-1.26,3.8-.68s1.96,1.87,1.74,3.16c0,.04,0,.08-.02.13-.33,2.14-.33,2.44,1,4.81.01.02.03.05.05.08.59,1.06.64,2.39,0,3.59"/>
        <path class="cls-1" d="M30.55,317.28c-.84,1.56-2.5,2.39-3.72,1.85s-1.52-2.25-.68-3.82c.84-1.56,2.5-2.39,3.72-1.85s1.52,2.25.68,3.82"/>
        <path class="cls-1" d="M36.42,319.91c-.84,1.56-2.5,2.39-3.72,1.85-1.22-.54-1.52-2.25-.68-3.82s2.5-2.39,3.72-1.85,1.52,2.25.68,3.82"/>
        <path class="cls-1" d="M37.43,326.5c-.63,1.18-1.96,1.76-2.98,1.3-1.01-.45-1.32-1.77-.69-2.94.63-1.18,1.96-1.76,2.98-1.3,1.01.45,1.32,1.77.69,2.94"/>
        <path class="cls-1" d="M23.49,320.27c-.63,1.18-1.96,1.76-2.98,1.3s-1.32-1.77-.69-2.94,1.96-1.76,2.98-1.3,1.32,1.77.69,2.94"/>
      </g>
      <g>
        <path class="cls-1" d="M60.58,236.03c-.38,2.19-2.47,3.79-4.68,3.57-.43-.04-.84-.15-1.21-.31-2.48-1.1-2.75-1.13-5.52-.54-.41.08-.84.11-1.27.07-2.21-.22-3.69-2.16-3.32-4.35.23-1.34,1.1-2.45,2.25-3.07.04-.02.06-.03.09-.05,2.56-1.38,2.75-1.64,3.83-3.63.02-.05.05-.08.07-.12.64-1.21,1.98-1.99,3.39-1.85s2.45,1.15,2.66,2.44c0,.04.02.08.03.13.37,2.13.46,2.42,2.48,4.24.02.02.04.04.07.06.9.82,1.37,2.07,1.14,3.41"/>
        <path class="cls-1" d="M54.09,221.71c-.3,1.75-1.62,3.06-2.94,2.93s-2.16-1.65-1.86-3.4c.3-1.75,1.62-3.06,2.94-2.93,1.33.13,2.16,1.65,1.86,3.4"/>
        <path class="cls-1" d="M60.49,222.33c-.3,1.75-1.62,3.06-2.94,2.93-1.33-.13-2.16-1.65-1.86-3.4s1.62-3.06,2.94-2.93,2.16,1.65,1.86,3.4"/>
        <path class="cls-1" d="M63.54,228.26c-.23,1.31-1.3,2.29-2.41,2.18s-1.82-1.26-1.59-2.57c.23-1.31,1.3-2.29,2.41-2.18s1.82,1.26,1.59,2.57"/>
        <path class="cls-1" d="M48.34,226.78c-.23,1.31-1.3,2.29-2.41,2.18s-1.82-1.26-1.59-2.57,1.3-2.29,2.41-2.18,1.82,1.26,1.59,2.57"/>
      </g>
      <g>
        <path class="cls-1" d="M64.83,139.96c-1.19,1.87-3.74,2.54-5.69,1.49-.38-.21-.71-.46-.99-.75-1.86-1.97-2.1-2.1-4.89-2.62-.41-.08-.82-.22-1.2-.43-1.95-1.05-2.58-3.42-1.39-5.29.73-1.15,1.96-1.84,3.26-1.97.04,0,.07,0,.1,0,2.89-.28,3.17-.45,4.93-1.88.04-.03.08-.06.11-.09,1.06-.87,2.6-1.07,3.84-.4,1.25.67,1.81,2,1.51,3.28,0,.04-.01.08-.03.13-.48,2.11-.51,2.41.65,4.87.01.02.03.05.04.09.51,1.1.47,2.43-.26,3.58"/>
        <path class="cls-1" d="M64.36,124.24c-.95,1.5-2.67,2.21-3.85,1.57s-1.35-2.35-.4-3.85c.95-1.5,2.67-2.21,3.85-1.57s1.35,2.35.4,3.85"/>
        <path class="cls-1" d="M70.02,127.28c-.95,1.5-2.67,2.21-3.85,1.57s-1.35-2.35-.4-3.85c.95-1.5,2.67-2.21,3.85-1.57,1.18.63,1.35,2.35.4,3.85"/>
        <path class="cls-1" d="M70.55,133.93c-.71,1.13-2.08,1.61-3.06,1.09-.98-.52-1.19-1.86-.48-2.99.71-1.13,2.08-1.61,3.06-1.09s1.19,1.86.48,2.99"/>
        <path class="cls-1" d="M57.09,126.71c-.71,1.13-2.08,1.61-3.06,1.09-.98-.52-1.19-1.86-.48-2.99.71-1.13,2.08-1.61,3.06-1.09s1.19,1.86.48,2.99"/>
      </g>
      <g>
        <path class="cls-1" d="M147.82,113.45c-2.22-.05-4.11-1.89-4.22-4.1-.02-.43.03-.85.13-1.24.73-2.61.71-2.89-.28-5.54-.14-.4-.23-.82-.26-1.25-.11-2.22,1.6-3.97,3.82-3.92,1.36.03,2.59.73,3.37,1.78.03.03.04.06.06.08,1.74,2.33,2.03,2.48,4.15,3.25.05.02.09.03.13.05,1.29.45,2.26,1.67,2.33,3.08s-.78,2.59-2.03,2.98c-.04.02-.08.03-.13.05-2.05.68-2.33.81-3.83,3.07-.01.02-.03.05-.05.08-.68,1.01-1.84,1.66-3.2,1.63"/>
        <path class="cls-1" d="M161.03,104.93c-1.78-.04-3.27-1.15-3.33-2.48s1.32-2.38,3.09-2.34,3.27,1.15,3.33,2.48c.07,1.33-1.32,2.38-3.09,2.34"/>
        <path class="cls-1" d="M161.36,111.35c-1.78-.04-3.27-1.15-3.33-2.48-.07-1.33,1.32-2.38,3.09-2.34s3.27,1.15,3.33,2.48c.07,1.33-1.32,2.38-3.09,2.34"/>
        <path class="cls-1" d="M155.93,115.24c-1.33-.03-2.46-.95-2.51-2.06s.98-1.98,2.31-1.95,2.46.95,2.51,2.06c.06,1.11-.98,1.98-2.31,1.95"/>
        <path class="cls-1" d="M155.17,99.98c-1.33-.03-2.46-.95-2.51-2.06s.98-1.98,2.31-1.95c1.33.03,2.46.95,2.51,2.06.06,1.11-.98,1.98-2.31,1.95"/>
      </g>
      <g>
        <path class="cls-1" d="M247.44,113.15c-2.22-.12-4.05-2.01-4.09-4.23,0-.43.06-.85.17-1.24.81-2.59.8-2.86-.11-5.54-.13-.4-.21-.82-.22-1.26-.04-2.22,1.72-3.92,3.93-3.81,1.36.07,2.57.81,3.32,1.88.02.03.04.06.06.08,1.67,2.38,1.95,2.54,4.05,3.38.05.02.09.04.13.05,1.28.49,2.21,1.74,2.24,3.15.03,1.41-.85,2.56-2.11,2.92-.04.01-.08.03-.13.04-2.07.61-2.35.74-3.93,2.96-.02.02-.03.05-.05.08-.71.99-1.89,1.6-3.25,1.53"/>
        <path class="cls-1" d="M260.9,105.03c-1.77-.09-3.23-1.25-3.26-2.58-.03-1.33,1.39-2.33,3.16-2.24,1.77.09,3.23,1.25,3.26,2.58s-1.39,2.33-3.16,2.24"/>
        <path class="cls-1" d="M261.03,111.45c-1.77-.09-3.23-1.25-3.26-2.58-.03-1.33,1.39-2.33,3.16-2.24s3.23,1.25,3.26,2.58-1.39,2.33-3.16,2.24"/>
        <path class="cls-1" d="M255.5,115.18c-1.33-.07-2.43-1.03-2.45-2.14s1.04-1.95,2.37-1.88c1.33.07,2.43,1.03,2.45,2.14.02,1.11-1.04,1.95-2.37,1.88"/>
        <path class="cls-1" d="M255.19,99.91c-1.33-.07-2.43-1.03-2.45-2.14s1.04-1.95,2.37-1.88c1.33.07,2.43,1.03,2.45,2.14s-1.04,1.95-2.37,1.88"/>
      </g>
      <g>
        <path class="cls-1" d="M348.72,104.37c-2.18.4-4.41-1.01-4.97-3.16-.11-.42-.14-.84-.13-1.24.18-2.71.11-2.97-1.4-5.37-.22-.36-.39-.75-.5-1.17-.56-2.15.75-4.22,2.94-4.62,1.34-.25,2.68.19,3.66,1.05.03.03.05.05.08.07,2.18,1.93,2.49,2.02,4.73,2.34.05,0,.1.02.14.02,1.36.18,2.55,1.17,2.91,2.54s-.23,2.69-1.37,3.34c-.04.02-.07.05-.11.07-1.87,1.08-2.11,1.27-3.13,3.79,0,.03-.02.05-.03.09-.46,1.13-1.47,2-2.8,2.25"/>
        <path class="cls-1" d="M359.91,93.33c-1.75.32-3.43-.46-3.77-1.75-.34-1.29.8-2.59,2.55-2.92,1.75-.32,3.43.46,3.77,1.75.34,1.29-.8,2.59-2.55,2.92"/>
        <path class="cls-1" d="M361.54,99.55c-1.75.32-3.43-.46-3.77-1.75s.8-2.59,2.55-2.92c1.75-.32,3.43.46,3.77,1.75s-.8,2.59-2.55,2.92"/>
        <path class="cls-1" d="M357.03,104.46c-1.31.24-2.6-.43-2.88-1.51s.55-2.14,1.86-2.38c1.31-.24,2.6.43,2.88,1.51.28,1.07-.55,2.14-1.86,2.38"/>
        <path class="cls-1" d="M353.16,89.69c-1.31.24-2.6-.43-2.88-1.51s.55-2.14,1.86-2.38c1.31-.24,2.6.43,2.88,1.51s-.55,2.14-1.86,2.38"/>
      </g>
      <g>
        <path class="cls-1" d="M443.01,64.56c-1.98,1.01-4.51.29-5.66-1.61-.22-.37-.38-.76-.47-1.15-.6-2.65-.74-2.88-2.87-4.74-.31-.28-.59-.61-.82-.98-1.15-1.9-.48-4.26,1.5-5.26,1.21-.62,2.63-.58,3.81-.04.04.02.06.03.09.04,2.64,1.23,2.96,1.22,5.2.89.05,0,.1-.01.14-.02,1.35-.21,2.78.4,3.51,1.61.73,1.21.54,2.65-.37,3.59-.03.03-.05.06-.09.1-1.49,1.57-1.66,1.82-1.92,4.52,0,.03,0,.06,0,.09-.12,1.21-.83,2.33-2.04,2.95"/>
        <path class="cls-1" d="M450.59,50.79c-1.58.81-3.42.54-4.11-.6s.03-2.72,1.61-3.52,3.42-.54,4.11.6-.03,2.72-1.61,3.52"/>
        <path class="cls-1" d="M453.92,56.28c-1.58.81-3.42.54-4.11-.6s.03-2.72,1.61-3.52,3.42-.54,4.11.6c.69,1.14-.03,2.72-1.61,3.52"/>
        <path class="cls-1" d="M451,62.28c-1.19.61-2.61.33-3.19-.62-.57-.95-.08-2.21,1.11-2.81s2.61-.33,3.19.62c.57.95.08,2.21-1.11,2.81"/>
        <path class="cls-1" d="M443.08,49.22c-1.19.61-2.61.33-3.19-.62s-.08-2.21,1.11-2.81,2.61-.33,3.19.62c.57.95.08,2.21-1.11,2.81"/>
      </g>
    </g>
    <g>
      <g>
        <path class="cls-1" d="M444.98,18.32c-2.21.2-4.3-1.41-4.66-3.59-.07-.43-.07-.85-.01-1.25.42-2.68.38-2.95-.91-5.47-.18-.38-.33-.78-.4-1.21-.36-2.19,1.13-4.13,3.34-4.33,1.35-.13,2.66.43,3.55,1.38.03.03.05.05.07.07,1.99,2.12,2.3,2.23,4.5,2.76.05.01.09.02.14.04,1.33.3,2.44,1.4,2.67,2.8s-.48,2.66-1.67,3.2c-.04.02-.07.04-.12.06-1.96.91-2.22,1.07-3.46,3.49-.01.03-.02.05-.04.08-.56,1.08-1.64,1.86-2.99,1.98"/>
        <path class="cls-1" d="M457.13,8.34c-1.77.16-3.38-.77-3.6-2.08-.22-1.32,1.04-2.51,2.81-2.67,1.77-.16,3.38.77,3.6,2.08s-1.04,2.51-2.81,2.67"/>
        <path class="cls-1" d="M458.19,14.68c-1.77.16-3.38-.77-3.6-2.08-.22-1.32,1.04-2.51,2.81-2.67s3.38.77,3.6,2.08-1.04,2.51-2.81,2.67"/>
        <path class="cls-1" d="M453.25,19.16c-1.33.12-2.55-.67-2.73-1.76s.74-2.08,2.07-2.2c1.33-.12,2.55.67,2.73,1.76s-.74,2.08-2.07,2.2"/>
        <path class="cls-1" d="M450.74,4.1c-1.33.12-2.55-.67-2.73-1.76s.74-2.08,2.07-2.2,2.55.67,2.73,1.76-.74,2.08-2.07,2.2"/>
      </g>
      <g>
        <path class="cls-1" d="M358.67,61.9c-2.2-.27-3.9-2.29-3.79-4.5.02-.43.11-.84.25-1.22.98-2.53,1-2.8.27-5.54-.1-.41-.15-.83-.13-1.27.11-2.22,1.99-3.79,4.19-3.52,1.35.17,2.5.99,3.18,2.1.02.04.04.06.05.09,1.5,2.49,1.77,2.67,3.81,3.65.05.02.09.04.13.06,1.24.58,2.08,1.89,2.01,3.3-.07,1.41-1.03,2.5-2.31,2.77-.04.01-.08.02-.13.03-2.11.47-2.4.58-4.12,2.68-.02.02-.03.04-.06.07-.78.94-2,1.47-3.35,1.3"/>
        <path class="cls-1" d="M372.67,54.73c-1.76-.22-3.14-1.47-3.07-2.8s1.55-2.23,3.31-2.02c1.76.22,3.14,1.47,3.07,2.8-.07,1.33-1.55,2.23-3.31,2.02"/>
        <path class="cls-1" d="M372.35,61.15c-1.76-.22-3.14-1.47-3.07-2.8.07-1.33,1.55-2.23,3.31-2.02,1.76.22,3.14,1.47,3.07,2.8-.07,1.33-1.55,2.23-3.31,2.02"/>
        <path class="cls-1" d="M366.57,64.48c-1.32-.16-2.35-1.19-2.29-2.3s1.17-1.88,2.49-1.71c1.32.16,2.35,1.19,2.29,2.3s-1.17,1.88-2.49,1.71"/>
        <path class="cls-1" d="M367.33,49.23c-1.32-.16-2.35-1.19-2.29-2.3s1.17-1.88,2.49-1.71c1.32.16,2.35,1.19,2.29,2.3s-1.17,1.88-2.49,1.71"/>
      </g>
      <g>
        <path class="cls-1" d="M258.75,75.43c-2.01-.94-3-3.39-2.2-5.46.16-.41.37-.76.62-1.08,1.72-2.1,1.82-2.35,1.98-5.18.03-.42.12-.84.27-1.25.79-2.07,3.07-2.99,5.07-2.05,1.23.58,2.07,1.71,2.37,2.99.01.04.02.07.02.1.65,2.84.85,3.09,2.49,4.65.04.04.07.07.1.1,1,.94,1.39,2.44.89,3.76s-1.76,2.05-3.06,1.91c-.04,0-.08,0-.13,0-2.15-.21-2.46-.19-4.75,1.26-.02.02-.05.03-.08.05-1.03.65-2.36.77-3.59.2"/>
        <path class="cls-1" d="M274.28,72.97c-1.61-.75-2.53-2.37-2.05-3.62.48-1.25,2.16-1.64,3.77-.89,1.61.75,2.53,2.37,2.05,3.62s-2.16,1.64-3.77.89"/>
        <path class="cls-1" d="M271.98,78.97c-1.61-.75-2.53-2.37-2.05-3.62s2.16-1.64,3.77-.89c1.61.75,2.53,2.37,2.05,3.62s-2.16,1.64-3.77.89"/>
        <path class="cls-1" d="M265.45,80.34c-1.21-.57-1.86-1.86-1.47-2.9.4-1.04,1.69-1.42,2.9-.85,1.21.57,1.86,1.86,1.47,2.9s-1.69,1.42-2.9.85"/>
        <path class="cls-1" d="M270.91,66.08c-1.21-.57-1.86-1.86-1.47-2.9s1.69-1.42,2.9-.85c1.21.57,1.86,1.86,1.47,2.9s-1.69,1.42-2.9.85"/>
      </g>
      <g>
        <path class="cls-1" d="M156.19,75.34c-2-.95-2.98-3.4-2.18-5.47.16-.4.37-.76.62-1.08,1.73-2.09,1.83-2.34,2.01-5.17.03-.42.12-.84.28-1.24.8-2.07,3.08-2.97,5.08-2.02,1.23.58,2.06,1.72,2.35,3,.01.04.02.07.02.1.64,2.84.84,3.09,2.46,4.66.04.04.07.07.1.1.99.94,1.38,2.45.87,3.77s-1.77,2.05-3.07,1.9c-.04,0-.08,0-.13-.01-2.15-.22-2.46-.21-4.75,1.24-.02.02-.05.03-.08.05-1.03.65-2.36.76-3.59.18"/>
        <path class="cls-1" d="M171.73,72.95c-1.6-.76-2.51-2.38-2.03-3.63s2.17-1.63,3.78-.87c1.6.76,2.51,2.38,2.03,3.63s-2.17,1.63-3.78.87"/>
        <path class="cls-1" d="M169.4,78.95c-1.6-.76-2.51-2.38-2.03-3.63s2.17-1.63,3.78-.87,2.51,2.38,2.03,3.63c-.48,1.24-2.17,1.63-3.78.87"/>
        <path class="cls-1" d="M162.87,80.28c-1.21-.57-1.85-1.87-1.45-2.91s1.7-1.41,2.91-.84c1.21.57,1.85,1.87,1.45,2.91-.4,1.03-1.7,1.41-2.91.84"/>
        <path class="cls-1" d="M168.39,66.05c-1.21-.57-1.85-1.87-1.45-2.91.4-1.03,1.7-1.41,2.91-.84s1.85,1.87,1.45,2.91-1.7,1.41-2.91.84"/>
      </g>
      <g>
        <path class="cls-1" d="M58.64,91.37c-2.21-.2-3.97-2.16-3.94-4.38,0-.43.09-.85.21-1.23.9-2.56.9-2.83.09-5.54-.11-.4-.18-.83-.17-1.26.04-2.22,1.86-3.86,4.07-3.66,1.35.12,2.53.9,3.25,2,.02.03.04.06.05.09,1.58,2.44,1.86,2.61,3.93,3.52.05.02.09.04.13.06,1.26.54,2.14,1.82,2.12,3.23s-.95,2.53-2.22,2.84c-.04.01-.08.02-.13.04-2.09.54-2.38.66-4.03,2.81-.02.02-.03.05-.06.08-.75.96-1.95,1.53-3.3,1.41"/>
        <path class="cls-1" d="M72.39,83.75c-1.77-.16-3.18-1.36-3.16-2.7s1.47-2.28,3.24-2.12c1.77.16,3.18,1.36,3.16,2.7-.02,1.33-1.47,2.28-3.24,2.12"/>
        <path class="cls-1" d="M72.29,90.18c-1.77-.16-3.18-1.36-3.16-2.7s1.47-2.28,3.24-2.12c1.77.16,3.18,1.36,3.16,2.7s-1.47,2.28-3.24,2.12"/>
        <path class="cls-1" d="M66.62,93.7c-1.33-.12-2.39-1.11-2.37-2.22s1.11-1.91,2.43-1.79c1.33.12,2.39,1.11,2.37,2.22s-1.11,1.91-2.43,1.79"/>
        <path class="cls-1" d="M66.87,78.43c-1.33-.12-2.39-1.11-2.37-2.22s1.11-1.91,2.43-1.79c1.33.12,2.39,1.11,2.37,2.22s-1.11,1.91-2.43,1.79"/>
      </g>
      <g>
        <path class="cls-1" d="M24.76,176.09c-.93,2.01-3.37,3.01-5.45,2.23-.41-.15-.77-.37-1.08-.61-2.11-1.71-2.36-1.81-5.19-1.96-.42-.03-.84-.11-1.25-.26-2.08-.78-3-3.05-2.07-5.06.57-1.23,1.7-2.08,2.97-2.38.04-.01.07-.02.1-.02,2.83-.66,3.09-.87,4.64-2.51.04-.04.07-.07.1-.1.93-1,2.43-1.4,3.76-.9,1.32.5,2.06,1.75,1.93,3.05,0,.04,0,.08,0,.13-.2,2.15-.18,2.46,1.29,4.74.02.02.03.05.05.08.66,1.03.78,2.35.21,3.58"/>
        <path class="cls-1" d="M22.22,160.57c-.75,1.61-2.36,2.54-3.61,2.07-1.25-.47-1.65-2.16-.91-3.77.75-1.61,2.36-2.54,3.61-2.07,1.25.47,1.65,2.16.91,3.77"/>
        <path class="cls-1" d="M28.24,162.84c-.75,1.61-2.36,2.54-3.61,2.07s-1.65-2.16-.91-3.77,2.36-2.54,3.61-2.07,1.65,2.16.91,3.77"/>
        <path class="cls-1" d="M29.64,169.36c-.56,1.21-1.85,1.87-2.89,1.48s-1.43-1.69-.87-2.9c.56-1.21,1.85-1.87,2.89-1.48s1.43,1.69.87,2.9"/>
        <path class="cls-1" d="M15.35,163.97c-.56,1.21-1.85,1.87-2.89,1.48-1.04-.39-1.43-1.69-.87-2.9s1.85-1.87,2.89-1.48,1.43,1.69.87,2.9"/>
      </g>
      <g>
        <path class="cls-1" d="M13.81,276.6c-1.48,1.65-4.11,1.88-5.86.52-.34-.27-.62-.58-.86-.91-1.51-2.26-1.72-2.42-4.38-3.4-.39-.15-.77-.35-1.11-.62-1.75-1.36-1.97-3.8-.49-5.45.91-1.01,2.24-1.49,3.54-1.4.04,0,.07,0,.1,0,2.9.2,3.2.08,5.17-1.03.04-.03.08-.05.12-.07,1.19-.68,2.74-.62,3.86.24,1.12.87,1.46,2.28.94,3.48-.01.04-.03.08-.05.13-.83,2-.9,2.29-.17,4.91,0,.03.02.05.03.09.32,1.17.06,2.48-.85,3.49"/>
        <path class="cls-1" d="M15.96,261.03c-1.19,1.32-3,1.73-4.05.91-1.05-.82-.94-2.55.24-3.87,1.19-1.32,3-1.73,4.05-.91,1.05.82.94,2.55-.24,3.87"/>
        <path class="cls-1" d="M21.04,264.97c-1.19,1.32-3,1.73-4.05.91s-.94-2.55.24-3.87c1.19-1.32,3-1.73,4.05-.91s.94,2.55-.24,3.87"/>
        <path class="cls-1" d="M20.45,271.61c-.89.99-2.32,1.24-3.2.56-.88-.68-.87-2.03.02-3.02.89-.99,2.32-1.24,3.2-.56.88.68.87,2.03-.02,3.02"/>
        <path class="cls-1" d="M8.39,262.25c-.89.99-2.32,1.24-3.2.56s-.87-2.03.02-3.02,2.32-1.24,3.2-.56.87,2.03-.02,3.02"/>
      </g>
    </g>
  </g>
</svg>