<?xml version="1.0" encoding="UTF-8"?>
<svg style="opacity: 20%" id="Layer_1" xmlns="http://www.w3.org/2000/svg" version="1.1" viewBox="0 0 3724 2340">
  <!-- Generator: Adobe Illustrator 29.0.1, SVG Export Plug-In . SVG Version: 2.1.0 Build 192)  -->
  <defs>
    <style>
      .st0 {
        stroke: #999;
      }

      .st0, .st1 {
        fill: #d0d9e3;
      }

      .st1 {
        stroke: #d0d9e3;
      }
    </style>
  </defs>
  <rect class="st0" x="1186.48" y="860.62" width="304" height="176" rx="64" ry="64" transform="translate(-90.39 142.55) rotate(-5.9)"/>
  <rect class="st0" x="1583.8" y="872.49" width="208" height="64" rx="25.6" ry="25.6" transform="translate(-84 178.21) rotate(-5.9)"/>
  <path class="st0" d="M1533.65,930.47c3.3-.34,5.69-3.29,5.35-6.58l-3.98.41c.11,1.1-.69,2.08-1.78,2.19l.41,3.98ZM1539,923.89c-.11-1.1.69-2.08,1.78-2.19l-.41-3.98c-3.3.34-5.69,3.29-5.35,6.58l3.98-.41ZM1540.79,921.69l37.3-3.85-.41-3.98-37.3,3.85.41,3.98ZM1495.85,934.37l37.8-3.9-.41-3.98-37.8,3.9.41,3.98ZM1537.01,924.09l1.99-.21-1.99.21ZM1537.01,924.09l1.99-.21-1.99.21ZM1579.43,917.11c.7-.86.57-2.12-.29-2.81l-13.97-11.35c-.86-.7-2.12-.57-2.81.29s-.57,2.12.29,2.81l12.42,10.09-10.09,12.42c-.7.86-.57,2.12.29,2.81s2.12.57,2.81-.29l11.35-13.97ZM1495.44,930.4c-1.1.11-1.9,1.1-1.78,2.19s1.1,1.9,2.19,1.78l-.41-3.98Z"/>
  <rect class="st0" x="1933.93" y="836.33" width="208" height="64" rx="25.6" ry="25.6" transform="translate(-78.43 213.99) rotate(-5.9)"/>
  <path class="st1" d="M1795.43,895.39l135.28-13.97-.41-3.98-135.28,13.97.41,3.98ZM1932.06,880.68c.7-.86.57-2.12-.29-2.81l-13.97-11.35c-.86-.7-2.12-.57-2.81.29s-.57,2.12.29,2.81l12.42,10.09-10.09,12.42c-.7.86-.57,2.12.29,2.81s2.12.57,2.81-.29l11.35-13.97ZM1795.02,891.41c-1.1.11-1.9,1.1-1.78,2.19s1.1,1.9,2.19,1.78l-.41-3.98Z"/>
  <rect class="st0" x="1922.43" y="724.92" width="208" height="64" rx="25.6" ry="25.6" transform="translate(-67.05 212.22) rotate(-5.9)"/>
  <path class="st1" d="M1839.2,890.87c14.28-1.48,24.67-14.25,23.19-28.53l-3.98.41c1.25,12.09-7.54,22.9-19.62,24.14l.41,3.98ZM1855.81,798.67c-1.25-12.09,7.54-22.9,19.62-24.14l-.41-3.98c-14.28,1.48-24.67,14.25-23.19,28.53l3.98-.41ZM1875.44,774.53l43.77-4.52-.41-3.98-43.77,4.52.41,3.98ZM1862.39,862.33l-6.58-63.66-3.98.41,6.58,63.66,3.98-.41ZM1795.43,895.39l43.77-4.52-.41-3.98-43.77,4.52.41,3.98ZM1920.55,769.28c.7-.86.57-2.12-.29-2.81l-13.97-11.35c-.86-.7-2.12-.57-2.81.29-.7.86-.57,2.12.29,2.81l12.42,10.09-10.09,12.42c-.7.86-.57,2.12.29,2.81.86.7,2.12.57,2.81-.29l11.35-13.97ZM1795.02,891.41c-1.1.11-1.9,1.1-1.78,2.19s1.1,1.9,2.19,1.78l-.41-3.98Z"/>
  <rect class="st0" x="1945.44" y="947.73" width="208" height="64" rx="25.6" ry="25.6" transform="translate(-89.82 215.77) rotate(-5.9)"/>
  <path class="st1" d="M1839.2,890.87c12.09-1.25,22.9,7.54,24.14,19.62l3.98-.41c-1.48-14.28-14.25-24.67-28.53-23.19l.41,3.98ZM1869.92,974.15c1.48,14.28,14.25,24.67,28.53,23.19l-.41-3.98c-12.09,1.25-22.9-7.54-24.14-19.62l-3.98.41ZM1898.45,997.34l43.77-4.52-.41-3.98-43.77,4.52.41,3.98ZM1863.34,910.49l6.58,63.66,3.98-.41-6.58-63.66-3.98.41ZM1795.43,895.39l43.77-4.52-.41-3.98-43.77,4.52.41,3.98ZM1943.57,992.09c.7-.86.57-2.12-.29-2.81l-13.97-11.35c-.86-.7-2.12-.57-2.81.29-.7.86-.57,2.12.29,2.81l12.42,10.09-10.09,12.42c-.7.86-.57,2.12.29,2.81.86.7,2.12.57,2.81-.29l11.35-13.97ZM1795.02,891.41c-1.1.11-1.9,1.1-1.78,2.19s1.1,1.9,2.19,1.78l-.41-3.98Z"/>
  <rect class="st0" x="1910.92" y="613.51" width="208" height="64" rx="25.6" ry="25.6" transform="translate(-55.66 210.45) rotate(-5.9)"/>
  <path class="st1" d="M1839.2,890.87c14.28-1.48,24.67-14.25,23.19-28.53l-3.98.41c1.25,12.09-7.54,22.9-19.62,24.14l.41,3.98ZM1844.3,687.26c-1.25-12.09,7.54-22.9,19.62-24.14l-.41-3.98c-14.28,1.48-24.67,14.25-23.19,28.53l3.98-.41ZM1863.93,663.12l43.77-4.52-.41-3.98-43.77,4.52.41,3.98ZM1862.39,862.33l-18.08-175.07-3.98.41,18.08,175.07,3.98-.41ZM1795.43,895.39l43.77-4.52-.41-3.98-43.77,4.52.41,3.98ZM1909.04,657.87c.7-.86.57-2.12-.29-2.81l-13.97-11.35c-.86-.7-2.12-.57-2.81.29-.7.86-.57,2.12.29,2.81l12.42,10.09-10.09,12.42c-.7.86-.57,2.12.29,2.81.86.7,2.12.57,2.81-.29l11.35-13.97ZM1795.02,891.41c-1.1.11-1.9,1.1-1.78,2.19s1.1,1.9,2.19,1.78l-.41-3.98Z"/>
  <rect class="st0" x="2284.07" y="800.16" width="208" height="64" rx="25.6" ry="25.6" transform="translate(-72.87 249.78) rotate(-5.9)"/>
  <path class="st1" d="M2145.57,859.22l135.28-13.97-.41-3.98-135.28,13.97.41,3.98ZM2282.19,844.52c.7-.86.57-2.12-.29-2.81l-13.97-11.35c-.86-.7-2.12-.57-2.81.29-.7.86-.57,2.12.29,2.81l12.42,10.09-10.09,12.42c-.7.86-.57,2.12.29,2.81.86.7,2.12.57,2.81-.29l11.35-13.97ZM2145.16,855.24c-1.1.11-1.9,1.1-1.78,2.19s1.1,1.9,2.19,1.78l-.41-3.98Z"/>
  <rect class="st0" x="2272.56" y="688.75" width="208" height="64" rx="25.6" ry="25.6" transform="translate(-61.48 248.01) rotate(-5.9)"/>
  <path class="st1" d="M2189.33,854.7c14.28-1.48,24.67-14.25,23.19-28.53l-3.98.41c1.25,12.09-7.54,22.9-19.62,24.14l.41,3.98ZM2205.95,762.5c-1.25-12.09,7.54-22.9,19.62-24.14l-.41-3.98c-14.28,1.48-24.67,14.25-23.19,28.53l3.98-.41ZM2225.57,738.36l43.77-4.52-.41-3.98-43.77,4.52.41,3.98ZM2212.53,826.16l-6.58-63.66-3.98.41,6.58,63.66,3.98-.41ZM2145.57,859.22l43.77-4.52-.41-3.98-43.77,4.52.41,3.98ZM2270.69,733.11c.7-.86.57-2.12-.29-2.81l-13.97-11.35c-.86-.7-2.12-.57-2.81.29-.7.86-.57,2.12.29,2.81l12.42,10.09-10.09,12.42c-.7.86-.57,2.12.29,2.81.86.7,2.12.57,2.81-.29l11.35-13.97ZM2145.16,855.24c-1.1.11-1.9,1.1-1.78,2.19s1.1,1.9,2.19,1.78l-.41-3.98Z"/>
  <rect class="st0" x="2295.58" y="911.56" width="208" height="64" rx="25.6" ry="25.6" transform="translate(-84.25 251.55) rotate(-5.9)"/>
  <path class="st1" d="M2189.33,854.7c12.09-1.25,22.9,7.54,24.14,19.62l3.98-.41c-1.48-14.28-14.25-24.67-28.53-23.19l.41,3.98ZM2220.06,937.98c1.48,14.28,14.25,24.67,28.53,23.19l-.41-3.98c-12.09,1.25-22.9-7.54-24.14-19.62l-3.98.41ZM2248.59,961.17l43.77-4.52-.41-3.98-43.77,4.52.41,3.98ZM2213.48,874.32l6.58,63.66,3.98-.41-6.58-63.66-3.98.41ZM2145.57,859.22l43.77-4.52-.41-3.98-43.77,4.52.41,3.98ZM2293.7,955.92c.7-.86.57-2.12-.29-2.81l-13.97-11.35c-.86-.7-2.12-.57-2.81.29-.7.86-.57,2.12.29,2.81l12.42,10.09-10.09,12.42c-.7.86-.57,2.12.29,2.81.86.7,2.12.57,2.81-.29l11.35-13.97ZM2145.16,855.24c-1.1.11-1.9,1.1-1.78,2.19s1.1,1.9,2.19,1.78l-.41-3.98Z"/>
  <rect class="st0" x="2261.05" y="577.34" width="208" height="64" rx="25.6" ry="25.6" transform="translate(-50.09 246.24) rotate(-5.9)"/>
  <path class="st1" d="M2189.33,854.7c14.28-1.48,24.67-14.25,23.19-28.53l-3.98.41c1.25,12.09-7.54,22.9-19.62,24.14l.41,3.98ZM2194.44,651.1c-1.25-12.09,7.54-22.9,19.62-24.14l-.41-3.98c-14.28,1.48-24.67,14.25-23.19,28.53l3.98-.41ZM2214.06,626.95l43.77-4.52-.41-3.98-43.77,4.52.41,3.98ZM2212.53,826.16l-18.08-175.07-3.98.41,18.08,175.07,3.98-.41ZM2145.57,859.22l43.77-4.52-.41-3.98-43.77,4.52.41,3.98ZM2259.18,621.7c.7-.86.57-2.12-.29-2.81l-13.97-11.35c-.86-.7-2.12-.57-2.81.29-.7.86-.57,2.12.29,2.81l12.42,10.09-10.09,12.42c-.7.86-.57,2.12.29,2.81.86.7,2.12.57,2.81-.29l11.35-13.97ZM2145.16,855.24c-1.1.11-1.9,1.1-1.78,2.19s1.1,1.9,2.19,1.78l-.41-3.98Z"/>
  <rect class="st0" x="2307.09" y="1022.97" width="208" height="64" rx="25.6" ry="25.6" transform="translate(-95.64 253.32) rotate(-5.9)"/>
  <path class="st1" d="M2189.33,854.7c12.09-1.25,22.9,7.54,24.14,19.62l3.98-.41c-1.48-14.28-14.25-24.67-28.53-23.19l.41,3.98ZM2231.56,1049.39c1.48,14.28,14.25,24.67,28.53,23.19l-.41-3.98c-12.09,1.25-22.9-7.54-24.14-19.62l-3.98.41ZM2260.1,1072.58l43.77-4.52-.41-3.98-43.77,4.52.41,3.98ZM2213.48,874.32l18.08,175.07,3.98-.41-18.08-175.07-3.98.41ZM2145.57,859.22l43.77-4.52-.41-3.98-43.77,4.52.41,3.98ZM2305.21,1067.33c.7-.86.57-2.12-.29-2.81l-13.97-11.35c-.86-.7-2.12-.57-2.81.29-.7.86-.57,2.12.29,2.81l12.42,10.09-10.09,12.42c-.7.86-.57,2.12.29,2.81.86.7,2.12.57,2.81-.29l11.35-13.97ZM2145.16,855.24c-1.1.11-1.9,1.1-1.78,2.19s1.1,1.9,2.19,1.78l-.41-3.98Z"/>
  <rect class="st0" x="2249.55" y="465.94" width="208" height="64" rx="25.6" ry="25.6" transform="translate(-38.71 244.46) rotate(-5.9)"/>
  <path class="st1" d="M2189.33,854.7c14.28-1.48,24.67-14.25,23.19-28.53l-3.98.41c1.25,12.09-7.54,22.9-19.62,24.14l.41,3.98ZM2182.93,539.69c-1.25-12.09,7.54-22.9,19.62-24.14l-.41-3.98c-14.28,1.48-24.67,14.25-23.19,28.53l3.98-.41ZM2202.56,515.54l43.77-4.52-.41-3.98-43.77,4.52.41,3.98ZM2212.53,826.16l-29.59-286.48-3.98.41,29.59,286.48,3.98-.41ZM2145.57,859.22l43.77-4.52-.41-3.98-43.77,4.52.41,3.98ZM2247.67,510.29c.7-.86.57-2.12-.29-2.81l-13.97-11.35c-.86-.7-2.12-.57-2.81.29-.7.86-.57,2.12.29,2.81l12.42,10.09-10.09,12.42c-.7.86-.57,2.12.29,2.81.86.7,2.12.57,2.81-.29l11.35-13.97ZM2145.16,855.24c-1.1.11-1.9,1.1-1.78,2.19s1.1,1.9,2.19,1.78l-.41-3.98Z"/>
  <rect class="st0" x="2634.21" y="763.99" width="208" height="64" rx="25.6" ry="25.6" transform="translate(-67.3 285.57) rotate(-5.9)"/>
  <path class="st1" d="M2495.7,823.05l135.28-13.97-.41-3.98-135.28,13.97.41,3.98ZM2632.33,808.35c.7-.86.57-2.12-.29-2.81l-13.97-11.35c-.86-.7-2.12-.57-2.81.29-.7.86-.57,2.12.29,2.81l12.42,10.09-10.09,12.42c-.7.86-.57,2.12.29,2.81.86.7,2.12.57,2.81-.29l11.35-13.97ZM2495.29,819.07c-1.1.11-1.9,1.1-1.78,2.19s1.1,1.9,2.19,1.78l-.41-3.98Z"/>
  <rect class="st0" x="2622.7" y="652.58" width="208" height="64" rx="25.6" ry="25.6" transform="translate(-55.91 283.79) rotate(-5.9)"/>
  <path class="st1" d="M2539.47,818.53c14.28-1.48,24.67-14.25,23.19-28.53l-3.98.41c1.25,12.09-7.54,22.9-19.62,24.14l.41,3.98ZM2556.09,726.33c-1.25-12.09,7.54-22.9,19.62-24.14l-.41-3.98c-14.28,1.48-24.67,14.25-23.19,28.53l3.98-.41ZM2575.71,702.19l43.77-4.52-.41-3.98-43.77,4.52.41,3.98ZM2562.66,790l-6.58-63.66-3.98.41,6.58,63.66,3.98-.41ZM2495.7,823.05l43.77-4.52-.41-3.98-43.77,4.52.41,3.98ZM2620.82,696.94c.7-.86.57-2.12-.29-2.81l-13.97-11.35c-.86-.7-2.12-.57-2.81.29-.7.86-.57,2.12.29,2.81l12.42,10.09-10.09,12.42c-.7.86-.57,2.12.29,2.81.86.7,2.12.57,2.81-.29l11.35-13.97ZM2495.29,819.07c-1.1.11-1.9,1.1-1.78,2.19s1.1,1.9,2.19,1.78l-.41-3.98Z"/>
  <rect class="st0" x="1529.54" y="347.29" width="208" height="64" rx="25.6" ry="25.6" transform="translate(-30.33 169.86) rotate(-5.9)"/>
  <path class="st1" d="M1513.76,932.53c14.28-1.48,24.67-14.25,23.19-28.53l-3.98.41c1.25,12.09-7.54,22.9-19.62,24.14l.41,3.98ZM1486.8,418.57c-1.25-12.09,7.54-22.9,19.62-24.14l-.41-3.98c-14.28,1.48-24.67,14.25-23.19,28.53l3.98-.41ZM1506.43,394.43l17.41-1.8-.41-3.98-17.41,1.8.41,3.98ZM1536.95,903.99l-50.14-485.42-3.98.41,50.14,485.42,3.98-.41ZM1495.85,934.37l17.9-1.85-.41-3.98-17.9,1.85.41,3.98ZM1525.18,391.9c.7-.86.57-2.12-.29-2.81l-13.97-11.35c-.86-.7-2.12-.57-2.81.29-.7.86-.57,2.12.29,2.81l12.42,10.09-10.09,12.42c-.7.86-.57,2.12.29,2.81.86.7,2.12.57,2.81-.29l11.35-13.97ZM1495.44,930.4c-1.1.11-1.9,1.1-1.78,2.19s1.1,1.9,2.19,1.78l-.41-3.98Z"/>
  <rect class="st0" x="1873.11" y="247.46" width="208" height="64" rx="25.6" ry="25.6" transform="translate(-18.25 204.63) rotate(-5.9)"/>
  <path class="st1" d="M1784.95,365.66c14.28-1.48,24.67-14.25,23.19-28.53l-3.98.41c1.25,12.09-7.54,22.9-19.62,24.14l.41,3.98ZM1806.49,321.21c-1.25-12.09,7.54-22.9,19.62-24.14l-.41-3.98c-14.28,1.48-24.67,14.25-23.19,28.53l3.98-.41ZM1826.12,297.07l43.77-4.52-.41-3.98-43.77,4.52.41,3.98ZM1808.14,337.13l-1.64-15.92-3.98.41,1.64,15.92,3.98-.41ZM1741.18,370.18l43.77-4.52-.41-3.98-43.77,4.52.41,3.98ZM1871.23,291.82c.7-.86.57-2.12-.29-2.81l-13.97-11.35c-.86-.7-2.12-.57-2.81.29-.7.86-.57,2.12.29,2.81l12.42,10.09-10.09,12.42c-.7.86-.57,2.12.29,2.81.86.7,2.12.57,2.81-.29l11.35-13.97ZM1740.77,366.2c-1.1.11-1.9,1.1-1.78,2.19s1.1,1.9,2.19,1.78l-.41-3.98Z"/>
  <rect class="st0" x="1882.15" y="334.99" width="208" height="64" rx="25.6" ry="25.6" transform="translate(-27.2 206.02) rotate(-5.9)"/>
  <path class="st1" d="M1796.88,364.43c5.49-.57,10.41,3.43,10.97,8.92l3.98-.41c-.79-7.69-7.67-13.28-15.36-12.49l.41,3.98ZM1807.86,373.35c.79,7.69,7.67,13.28,15.36,12.49l-.41-3.98c-5.49.57-10.41-3.43-10.97-8.92l-3.98.41ZM1823.22,385.83l55.7-5.75-.41-3.98-55.7,5.75.41,3.98ZM1741.18,370.18l55.7-5.75-.41-3.98-55.7,5.75.41,3.98ZM1809.85,373.14l1.99-.21-1.99.21ZM1809.85,373.14l1.99-.21-1.99.21ZM1880.27,379.35c.7-.86.57-2.12-.29-2.81l-13.97-11.35c-.86-.7-2.12-.57-2.81.29-.7.86-.57,2.12.29,2.81l12.42,10.09-10.09,12.42c-.7.86-.57,2.12.29,2.81.86.7,2.12.57,2.81-.29l11.35-13.97ZM1740.77,366.2c-1.1.11-1.9,1.1-1.78,2.19s1.1,1.9,2.19,1.78l-.41-3.98Z"/>
  <rect class="st0" x="1890.98" y="420.54" width="208" height="64" rx="25.6" ry="25.6" transform="translate(-35.94 207.38) rotate(-5.9)"/>
  <path class="st1" d="M1784.95,365.66c12.09-1.25,22.9,7.54,24.14,19.62l3.98-.41c-1.48-14.28-14.25-24.67-28.53-23.19l.41,3.98ZM1815.46,446.96c1.48,14.28,14.25,24.67,28.53,23.19l-.41-3.98c-12.09,1.25-22.9-7.54-24.14-19.62l-3.98.41ZM1843.99,470.15l43.77-4.52-.41-3.98-43.77,4.52.41,3.98ZM1809.09,385.28l6.37,61.67,3.98-.41-6.37-61.67-3.98.41ZM1741.18,370.18l43.77-4.52-.41-3.98-43.77,4.52.41,3.98ZM1889.11,464.9c.7-.86.57-2.12-.29-2.81l-13.97-11.35c-.86-.7-2.12-.57-2.81.29-.7.86-.57,2.12.29,2.81l12.42,10.09-10.09,12.42c-.7.86-.57,2.12.29,2.81.86.7,2.12.57,2.81-.29l11.35-13.97ZM1740.77,366.2c-1.1.11-1.9,1.1-1.78,2.19s1.1,1.9,2.19,1.78l-.41-3.98Z"/>
  <rect class="st0" x="1899.82" y="506.08" width="208" height="64" rx="25.6" ry="25.6" transform="translate(-44.68 208.74) rotate(-5.9)"/>
  <path class="st1" d="M1784.95,365.66c12.09-1.25,22.9,7.54,24.14,19.62l3.98-.41c-1.48-14.28-14.25-24.67-28.53-23.19l.41,3.98ZM1824.3,532.5c1.48,14.28,14.25,24.67,28.53,23.19l-.41-3.98c-12.09,1.25-22.9-7.54-24.14-19.62l-3.98.41ZM1852.83,555.69l43.77-4.52-.41-3.98-43.77,4.52.41,3.98ZM1809.09,385.28l15.21,147.22,3.98-.41-15.21-147.22-3.98.41ZM1741.18,370.18l43.77-4.52-.41-3.98-43.77,4.52.41,3.98ZM1897.94,550.44c.7-.86.57-2.12-.29-2.81l-13.97-11.35c-.86-.7-2.12-.57-2.81.29-.7.86-.57,2.12.29,2.81l12.42,10.09-10.09,12.42c-.7.86-.57,2.12.29,2.81.86.7,2.12.57,2.81-.29l11.35-13.97ZM1740.77,366.2c-1.1.11-1.9,1.1-1.78,2.19s1.1,1.9,2.19,1.78l-.41-3.98Z"/>
  <rect class="st0" x="1062.71" y="1823.07" width="208" height="64" rx="25.6" ry="25.6" transform="translate(-184.43 129.7) rotate(-5.9)"/>
  <path class="st1" d="M1382.32,1392.46c1.25,12.09-7.54,22.9-19.62,24.14l.41,3.98c14.28-1.48,24.67-14.25,23.19-28.53l-3.98.41ZM1147.84,1438.8c-14.28,1.48-24.67,14.25-23.19,28.53l3.98-.41c-1.25-12.09,7.54-22.9,19.62-24.14l-.41-3.98ZM1124.65,1467.34l36.12,349.64,3.98-.41-36.12-349.64-3.98.41ZM1362.7,1416.61l-214.86,22.19.41,3.98,214.86-22.19-.41-3.98ZM1346.15,1042.33l36.17,350.14,3.98-.41-36.17-350.14-3.98.41ZM1161.49,1818.32c.86.7,2.12.57,2.81-.29l11.35-13.97c.7-.86.57-2.12-.29-2.81-.86-.7-2.12-.57-2.81.29l-10.09,12.42-12.42-10.09c-.86-.7-2.12-.57-2.81.29-.7.86-.57,2.12.29,2.81l13.97,11.35ZM1350.13,1041.92c-.11-1.1-1.1-1.9-2.19-1.78s-1.9,1.1-1.78,2.19l3.98-.41Z"/>
  <rect class="st0" x="1516.3" y="1776.21" width="208" height="64" rx="25.6" ry="25.6" transform="translate(-177.22 176.06) rotate(-5.9)"/>
  <path class="st1" d="M1274.34,1845.96l238.73-24.66-.41-3.98-238.73,24.66.41,3.98ZM1514.42,1820.57c.7-.86.57-2.12-.29-2.81l-13.97-11.35c-.86-.7-2.12-.57-2.81.29-.7.86-.57,2.12.29,2.81l12.42,10.09-10.09,12.42c-.7.86-.57,2.12.29,2.81.86.7,2.12.57,2.81-.29l11.35-13.97ZM1273.93,1841.98c-1.1.11-1.9,1.1-1.78,2.19s1.1,1.9,2.19,1.78l-.41-3.98Z"/>
  <rect class="st0" x="1963.31" y="1665.7" width="208" height="64" rx="25.6" ry="25.6" transform="translate(-163.5 221.4) rotate(-5.9)"/>
  <path class="st1" d="M1823.42,1789.24c14.28-1.48,24.67-14.25,23.19-28.53l-3.98.41c1.25,12.09-7.54,22.9-19.62,24.14l.41,3.98ZM1844.97,1744.79c-1.25-12.09,7.54-22.9,19.62-24.14l-.41-3.98c-14.28,1.48-24.67,14.25-23.19,28.53l3.98-.41ZM1864.59,1720.65l95.49-9.86-.41-3.98-95.49,9.86.41,3.98ZM1846.61,1760.71l-1.64-15.92-3.98.41,1.64,15.92,3.98-.41ZM1727.93,1799.11l95.49-9.86-.41-3.98-95.49,9.86.41,3.98ZM1961.43,1710.06c.7-.86.57-2.12-.29-2.81l-13.97-11.35c-.86-.7-2.12-.57-2.81.29-.7.86-.57,2.12.29,2.81l12.42,10.09-10.09,12.42c-.7.86-.57,2.12.29,2.81.86.7,2.12.57,2.81-.29l11.35-13.97ZM1727.52,1795.13c-1.1.11-1.9,1.1-1.78,2.19s1.1,1.9,2.19,1.78l-.41-3.98Z"/>
  <rect class="st0" x="1974.82" y="1777.1" width="208" height="64" rx="25.6" ry="25.6" transform="translate(-174.88 223.17) rotate(-5.9)"/>
  <path class="st1" d="M1823.42,1789.24c12.09-1.25,22.9,7.54,24.14,19.62l3.98-.41c-1.48-14.28-14.25-24.67-28.53-23.19l.41,3.98ZM1847.57,1808.86c1.48,14.28,14.25,24.67,28.53,23.19l-.41-3.98c-12.09,1.25-22.9-7.54-24.14-19.62l-3.98.41ZM1876.1,1832.06l95.49-9.86-.41-3.98-95.49,9.86.41,3.98ZM1727.93,1799.11l95.49-9.86-.41-3.98-95.49,9.86.41,3.98ZM1849.56,1808.66l1.99-.21-1.99.21ZM1849.56,1808.66l1.99-.21-1.99.21ZM1972.94,1821.46c.7-.86.57-2.12-.29-2.81l-13.97-11.35c-.86-.7-2.12-.57-2.81.29-.7.86-.57,2.12.29,2.81l12.42,10.09-10.09,12.42c-.7.86-.57,2.12.29,2.81.86.7,2.12.57,2.81-.29l11.35-13.97ZM1727.52,1795.13c-1.1.11-1.9,1.1-1.78,2.19s1.1,1.9,2.19,1.78l-.41-3.98Z"/>
  <rect class="st0" x="1984.68" y="1872.6" width="208" height="64" rx="25.6" ry="25.6" transform="translate(-184.64 224.69) rotate(-5.9)"/>
  <path class="st1" d="M1823.42,1789.24c12.09-1.25,22.9,7.54,24.14,19.62l3.98-.41c-1.48-14.28-14.25-24.67-28.53-23.19l.41,3.98ZM1857.43,1904.36c1.48,14.28,14.25,24.67,28.53,23.19l-.41-3.98c-12.09,1.25-22.9-7.54-24.14-19.62l-3.98.41ZM1885.97,1927.55l95.49-9.86-.41-3.98-95.49,9.86.41,3.98ZM1847.57,1808.86l9.86,95.49,3.98-.41-9.86-95.49-3.98.41ZM1727.93,1799.11l95.49-9.86-.41-3.98-95.49,9.86.41,3.98ZM1982.8,1916.96c.7-.86.57-2.12-.29-2.81l-13.97-11.35c-.86-.7-2.12-.57-2.81.29-.7.86-.57,2.12.29,2.81l12.42,10.09-10.09,12.42c-.7.86-.57,2.12.29,2.81.86.7,2.12.57,2.81-.29l11.35-13.97ZM1727.52,1795.13c-1.1.11-1.9,1.1-1.78,2.19s1.1,1.9,2.19,1.78l-.41-3.98Z"/>
  <rect class="st0" x="1398.05" y="1643.66" width="208" height="64" rx="25.6" ry="25.6" transform="translate(-164.23 163.21) rotate(-5.9)"/>
  <path class="st1" d="M1318.11,1841.44c14.28-1.48,24.67-14.25,23.19-28.53l-3.98.41c1.25,12.09-7.54,22.9-19.62,24.14l.41,3.98ZM1331.44,1717.41c-1.25-12.09,7.54-22.9,19.62-24.14l-.41-3.98c-14.28,1.48-24.67,14.25-23.19,28.53l3.98-.41ZM1351.06,1693.27l43.77-4.52-.41-3.98-43.77,4.52.41,3.98ZM1341.3,1812.9l-9.86-95.49-3.98.41,9.86,95.49,3.98-.41ZM1274.34,1845.96l43.77-4.52-.41-3.98-43.77,4.52.41,3.98ZM1396.18,1688.02c.7-.86.57-2.12-.29-2.81l-13.97-11.35c-.86-.7-2.12-.57-2.81.29-.7.86-.57,2.12.29,2.81l12.42,10.09-10.09,12.42c-.7.86-.57,2.12.29,2.81.86.7,2.12.57,2.81-.29l11.35-13.97ZM1273.93,1841.98c-1.1.11-1.9,1.1-1.78,2.19s1.1,1.9,2.19,1.78l-.41-3.98Z"/>
  <rect class="st0" x="1508.86" y="1937.83" width="208" height="64" rx="25.6" ry="25.6" transform="translate(-193.86 176.15) rotate(-5.9)"/>
  <path class="st1" d="M1357.9,1837.33c12.09-1.25,22.9,7.54,24.14,19.62l3.98-.41c-1.48-14.28-14.25-24.67-28.53-23.19l.41,3.98ZM1393.55,1968.36c1.48,14.28,14.25,24.67,28.53,23.19l-.41-3.98c-12.09,1.25-22.9-7.54-24.14-19.62l-3.98.41ZM1422.09,1991.55l83.56-8.63-.41-3.98-83.56,8.63.41,3.98ZM1382.04,1856.95l11.51,111.41,3.98-.41-11.51-111.41-3.98.41ZM1274.34,1845.96l83.56-8.63-.41-3.98-83.56,8.63.41,3.98ZM1506.99,1982.19c.7-.86.57-2.12-.29-2.81l-13.97-11.35c-.86-.7-2.12-.57-2.81.29-.7.86-.57,2.12.29,2.81l12.42,10.09-10.09,12.42c-.7.86-.57,2.12.29,2.81.86.7,2.12.57,2.81-.29l11.35-13.97ZM1273.93,1841.98c-1.1.11-1.9,1.1-1.78,2.19s1.1,1.9,2.19,1.78l-.41-3.98Z"/>
  <rect class="st0" x="1097.24" y="2157.29" width="208" height="64" rx="25.6" ry="25.6" transform="translate(-218.59 135.02) rotate(-5.9)"/>
  <path class="st1" d="M1278.32,1845.55c12.09-1.25,22.9,7.54,24.14,19.62l3.98-.41c-1.48-14.28-14.25-24.67-28.53-23.19l.41,3.98ZM1314.8,1984.54c1.25,12.09-7.54,22.9-19.62,24.14l.41,3.98c14.28-1.48,24.67-14.25,23.19-28.53l-3.98.41ZM1072.36,2031.7c-14.28,1.48-24.67,14.25-23.19,28.53l3.98-.41c-1.25-12.09,7.54-22.9,19.62-24.14l-.41-3.98ZM1061.5,2179.6c1.48,14.28,14.25,24.67,28.53,23.19l-.41-3.98c-12.09,1.25-22.9-7.54-24.14-19.62l-3.98.41ZM1090.03,2202.79l3.98-.41-.41-3.98-3.98.41.41,3.98ZM1049.17,2060.23l12.33,119.36,3.98-.41-12.33-119.36-3.98.41ZM1295.17,2008.68l-222.81,23.02.41,3.98,222.81-23.02-.41-3.98ZM1302.47,1865.17l12.33,119.36,3.98-.41-12.33-119.36-3.98.41ZM1274.34,1845.96l3.98-.41-.41-3.98-3.98.41.41,3.98ZM1095.36,2201.65c.7-.86.57-2.12-.29-2.81l-13.97-11.35c-.86-.7-2.12-.57-2.81.29-.7.86-.57,2.12.29,2.81l12.42,10.09-10.09,12.42c-.7.86-.57,2.12.29,2.81.86.7,2.12.57,2.81-.29l11.35-13.97ZM1273.93,1841.98c-1.1.11-1.9,1.1-1.78,2.19s1.1,1.9,2.19,1.78l-.41-3.98Z"/>
  <rect class="st0" x="1792.58" y="2037.21" width="208" height="64" rx="25.6" ry="25.6" transform="translate(-202.57 205.83) rotate(-5.9)"/>
  <path class="st1" d="M1527.7,2157.58c14.28-1.48,24.67-14.25,23.19-28.53l-3.98.41c1.25,12.09-7.54,22.9-19.62,24.14l.41,3.98ZM1550.9,2129.04c-1.25-12.09,7.54-22.9,19.62-24.14l-.41-3.98c-14.28,1.48-24.67,14.25-23.19,28.53l3.98-.41ZM1570.52,2104.9l218.84-22.61-.41-3.98-218.84,22.61.41,3.98ZM1308.87,2180.18l218.84-22.61-.41-3.98-218.84,22.61.41,3.98ZM1548.91,2129.25l1.99-.21-1.99.21ZM1548.91,2129.25l1.99-.21-1.99.21ZM1790.7,2081.57c.7-.86.57-2.12-.29-2.81l-13.97-11.35c-.86-.7-2.12-.57-2.81.29-.7.86-.57,2.12.29,2.81l12.42,10.09-10.09,12.42c-.7.86-.57,2.12.29,2.81.86.7,2.12.57,2.81-.29l11.35-13.97ZM1308.46,2176.2c-1.1.11-1.9,1.1-1.78,2.19s1.1,1.9,2.19,1.78l-.41-3.98Z"/>
  <rect class="st0" x="1804.09" y="2148.61" width="208" height="64" rx="25.6" ry="25.6" transform="translate(-213.96 207.6) rotate(-5.9)"/>
  <path class="st1" d="M1527.7,2157.58c12.09-1.25,22.9,7.54,24.14,19.62l3.98-.41c-1.48-14.28-14.25-24.67-28.53-23.19l.41,3.98ZM1553.49,2193.11c1.48,14.28,14.25,24.67,28.53,23.19l-.41-3.98c-12.09,1.25-22.9-7.54-24.14-19.62l-3.98.41ZM1582.03,2216.31l218.84-22.61-.41-3.98-218.84,22.61.41,3.98ZM1551.85,2177.2l1.64,15.92,3.98-.41-1.64-15.92-3.98.41ZM1308.87,2180.18l218.84-22.61-.41-3.98-218.84,22.61.41,3.98ZM1802.21,2192.97c.7-.86.57-2.12-.29-2.81l-13.97-11.35c-.86-.7-2.12-.57-2.81.29-.7.86-.57,2.12.29,2.81l12.42,10.09-10.09,12.42c-.7.86-.57,2.12.29,2.81.86.7,2.12.57,2.81-.29l11.35-13.97ZM1308.46,2176.2c-1.1.11-1.9,1.1-1.78,2.19s1.1,1.9,2.19,1.78l-.41-3.98Z"/>
  <rect class="st0" x="1083.92" y="393.32" width="208" height="64" rx="25.6" ry="25.6" transform="translate(-37.41 124.31) rotate(-5.9)"/>
  <path class="st1" d="M1312.52,677.85c-1.48-14.28-14.25-24.67-28.53-23.19l.41,3.98c12.09-1.25,22.9,7.54,24.14,19.62l3.98-.41ZM1236.24,659.6c-12.09,1.25-22.9-7.54-24.14-19.62l-3.98.41c1.48,14.28,14.25,24.67,28.53,23.19l-.41-3.98ZM1212.1,639.97l-18.24-176.56-3.98.41,18.24,176.56,3.98-.41ZM1283.99,654.66l-47.75,4.93.41,3.98,47.75-4.93-.41-3.98ZM1330.81,854.91l-18.29-177.06-3.98.41,18.29,177.06,3.98-.41ZM1193.13,462.07c-.86-.7-2.12-.57-2.81.29l-11.35,13.97c-.7.86-.57,2.12.29,2.81.86.7,2.12.57,2.81-.29l10.09-12.42,12.42,10.09c.86.7,2.12.57,2.81-.29.7-.86.57-2.12-.29-2.81l-13.97-11.35ZM1326.83,855.32c.11,1.1,1.1,1.9,2.19,1.78s1.9-1.1,1.78-2.19l-3.98.41Z"/>
  <rect class="st0" x="1064.19" y="202.34" width="208" height="64" rx="25.6" ry="25.6" transform="translate(-17.9 121.27) rotate(-5.9)"/>
  <path class="st1" d="M1186.21,389.31l-12.33-119.36-3.98.41,12.33,119.36,3.98-.41ZM1173.15,268.59c-.86-.7-2.12-.57-2.81.29l-11.35,13.97c-.7.86-.57,2.12.29,2.81s2.12.57,2.81-.29l10.09-12.42,12.42,10.09c.86.7,2.12.57,2.81-.29s.57-2.12-.29-2.81l-13.97-11.35ZM1182.23,389.72c.11,1.1,1.1,1.9,2.19,1.78s1.9-1.1,1.78-2.19l-3.98.41Z"/>
  <rect class="st0" x="777.71" y="231.93" width="208" height="64" rx="25.6" ry="25.6" transform="translate(-22.45 91.99) rotate(-5.9)"/>
  <path class="st1" d="M1182.51,353.5c-1.48-14.28-14.25-24.67-28.53-23.19l.41,3.98c12.09-1.25,22.9,7.54,24.14,19.62l3.98-.41ZM915.24,354.97c-12.09,1.25-22.9-7.54-24.14-19.62l-3.98.41c1.48,14.28,14.25,24.67,28.53,23.19l-.41-3.98ZM891.1,335.34l-3.7-35.81-3.98.41,3.7,35.81,3.98-.41ZM1153.97,330.31l-238.73,24.66.41,3.98,238.73-24.66-.41-3.98ZM1186.21,389.31l-3.7-35.81-3.98.41,3.7,35.81,3.98-.41ZM886.67,298.19c-.86-.7-2.12-.57-2.81.29l-11.35,13.97c-.7.86-.57,2.12.29,2.81.86.7,2.12.57,2.81-.29l10.09-12.42,12.42,10.09c.86.7,2.12.57,2.81-.29.7-.86.57-2.12-.29-2.81l-13.97-11.35ZM1182.23,389.72c.11,1.1,1.1,1.9,2.19,1.78s1.9-1.1,1.78-2.19l-3.98.41Z"/>
  <rect class="st0" x="1349.84" y="164.79" width="208" height="64" rx="25.6" ry="25.6" transform="translate(-12.53 150.42) rotate(-5.9)"/>
  <path class="st1" d="M1182.1,349.52c-1.25-12.09,7.54-22.9,19.62-24.14l-.41-3.98c-14.28,1.48-24.67,14.25-23.19,28.53l3.98-.41ZM1440.45,300.71c14.28-1.48,24.67-14.25,23.19-28.53l-3.98.41c1.25,12.09-7.54,22.9-19.62,24.14l.41,3.98ZM1463.64,272.18l-4.11-39.79-3.98.41,4.11,39.79,3.98-.41ZM1201.72,325.37l238.73-24.66-.41-3.98-238.73,24.66.41,3.98ZM1186.21,389.31l-4.11-39.79-3.98.41,4.11,39.79,3.98-.41ZM1458.8,231.05c-.86-.7-2.12-.57-2.81.29l-11.35,13.97c-.7.86-.57,2.12.29,2.81.86.7,2.12.57,2.81-.29l10.09-12.42,12.42,10.09c.86.7,2.12.57,2.81-.29s.57-2.12-.29-2.81l-13.97-11.35ZM1182.23,389.72c.11,1.1,1.1,1.9,2.19,1.78s1.9-1.1,1.78-2.19l-3.98.41Z"/>
  <rect class="st0" x="637.99" y="592.19" width="208" height="64" rx="25.6" ry="25.6" transform="translate(-60.21 79.54) rotate(-5.9)"/>
  <path class="st1" d="M1059.76,975.4c-12.09,1.25-22.9-7.54-24.14-19.62l-3.98.41c1.48,14.28,14.25,24.67,28.53,23.19l-.41-3.98ZM1001.09,621.56c-1.48-14.28-14.25-24.67-28.53-23.19l.41,3.98c12.09-1.25,22.9,7.54,24.14,19.62l3.98-.41ZM972.56,598.37l-120.86,12.48.41,3.98,120.86-12.48-.41-3.98ZM1035.61,955.78l-34.52-334.22-3.98.41,34.52,334.22,3.98-.41ZM1181.11,962.87l-121.35,12.54.41,3.98,121.35-12.54-.41-3.98ZM850.35,611.58c-.7.86-.57,2.12.29,2.81l13.97,11.35c.86.7,2.12.57,2.81-.29.7-.86.57-2.12-.29-2.81l-12.42-10.09,10.09-12.42c.7-.86.57-2.12-.29-2.81-.86-.7-2.12-.57-2.81.29l-11.35,13.97ZM1181.52,966.84c1.1-.11,1.9-1.1,1.78-2.19s-1.1-1.9-2.19-1.78l.41,3.98Z"/>
  <rect class="st0" x="46.82" y="436.11" width="208" height="64" rx="25.6" ry="25.6" transform="translate(-47.3 17.97) rotate(-5.9)"/>
  <path class="st1" d="M481.17,649.12c-12.09,1.25-22.9-7.54-24.14-19.62l-3.98.41c1.48,14.28,14.25,24.67,28.53,23.19l-.41-3.98ZM439.76,462.39c-1.48-14.28-14.25-24.67-28.53-23.19l.41,3.98c12.09-1.25,22.9,7.54,24.14,19.62l3.98-.41ZM411.23,439.2l-153.18,15.82.41,3.98,153.18-15.82-.41-3.98ZM457.03,629.5l-17.26-167.11-3.98.41,17.26,167.11,3.98-.41ZM634.36,633.3l-153.18,15.82.41,3.98,153.18-15.82-.41-3.98ZM256.7,455.75c-.7.86-.57,2.12.29,2.81l13.97,11.35c.86.7,2.12.57,2.81-.29s.57-2.12-.29-2.81l-12.42-10.09,10.09-12.42c.7-.86.57-2.12-.29-2.81-.86-.7-2.12-.57-2.81.29l-11.35,13.97ZM634.77,637.28c1.1-.11,1.9-1.1,1.78-2.19s-1.1-1.9-2.19-1.78l.41,3.98Z"/>
  <rect class="st0" x="66.55" y="627.09" width="208" height="64" rx="25.6" ry="25.6" transform="translate(-66.82 21.01) rotate(-5.9)"/>
  <path class="st1" d="M469.23,650.36c-5.49.57-10.41-3.43-10.97-8.92l-3.98.41c.79,7.69,7.67,13.28,15.36,12.49l-.41-3.98ZM458.26,641.44c-.79-7.69-7.67-13.28-15.36-12.49l.41,3.98c5.49-.57,10.41,3.43,10.97,8.92l3.98-.41ZM442.9,628.95l-165.12,17.06.41,3.98,165.12-17.06-.41-3.98ZM634.36,633.3l-165.12,17.06.41,3.98,165.12-17.06-.41-3.98ZM456.27,641.64l1.99-.21-1.99.21ZM456.27,641.64l1.99-.21-1.99.21ZM276.43,646.73c-.7.86-.57,2.12.29,2.81l13.97,11.35c.86.7,2.12.57,2.81-.29s.57-2.12-.29-2.81l-12.42-10.09,10.09-12.42c.7-.86.57-2.12-.29-2.81-.86-.7-2.12-.57-2.81.29l-11.35,13.97ZM634.77,637.28c1.1-.11,1.9-1.1,1.78-2.19s-1.1-1.9-2.19-1.78l.41,3.98Z"/>
  <rect class="st0" x="55.87" y="523.64" width="208" height="64" rx="25.6" ry="25.6" transform="translate(-56.25 19.37) rotate(-5.9)"/>
  <path class="st1" d="M481.17,649.12c-12.09,1.25-22.9-7.54-24.14-19.62l-3.98.41c1.48,14.28,14.25,24.67,28.53,23.19l-.41-3.98ZM448.81,549.92c-1.48-14.28-14.25-24.67-28.53-23.19l.41,3.98c12.09-1.25,22.9,7.54,24.14,19.62l3.98-.41ZM420.27,526.73l-153.18,15.82.41,3.98,153.18-15.82-.41-3.98ZM457.03,629.5l-8.22-79.58-3.98.41,8.22,79.58,3.98-.41ZM634.36,633.3l-153.18,15.82.41,3.98,153.18-15.82-.41-3.98ZM265.74,543.29c-.7.86-.57,2.12.29,2.81l13.97,11.35c.86.7,2.12.57,2.81-.29s.57-2.12-.29-2.81l-12.42-10.09,10.09-12.42c.7-.86.57-2.12-.29-2.81-.86-.7-2.12-.57-2.81.29l-11.35,13.97ZM634.77,637.28c1.1-.11,1.9-1.1,1.78-2.19s-1.1-1.9-2.19-1.78l.41,3.98Z"/>
  <rect class="st0" x="76.21" y="720.6" width="208" height="64" rx="25.6" ry="25.6" transform="translate(-76.38 22.5) rotate(-5.9)"/>
  <path class="st1" d="M481.17,649.12c-14.28,1.48-24.67,14.25-23.19,28.53l3.98-.41c-1.25-12.09,7.54-22.9,19.62-24.14l-.41-3.98ZM460.24,699.54c1.25,12.09-7.54,22.9-19.62,24.14l.41,3.98c14.28-1.48,24.67-14.25,23.19-28.53l-3.98.41ZM440.62,723.69l-153.18,15.82.41,3.98,153.18-15.82-.41-3.98ZM457.98,677.66l2.26,21.88,3.98-.41-2.26-21.88-3.98.41ZM634.36,633.3l-153.18,15.82.41,3.98,153.18-15.82-.41-3.98ZM286.09,740.24c-.7.86-.57,2.12.29,2.81l13.97,11.35c.86.7,2.12.57,2.81-.29s.57-2.12-.29-2.81l-12.42-10.09,10.09-12.42c.7-.86.57-2.12-.29-2.81-.86-.7-2.12-.57-2.81.29l-11.35,13.97ZM634.77,637.28c1.1-.11,1.9-1.1,1.78-2.19s-1.1-1.9-2.19-1.78l.41,3.98Z"/>
  <rect class="st0" x="542.84" y="1072.51" width="208" height="64" rx="25.6" ry="25.6" transform="translate(-110.07 72.31) rotate(-5.9)"/>
  <path class="st1" d="M1173.04,967.72l8.48-.88-.41-3.98-8.48.88.41,3.98ZM1145.47,970.57l16.96-1.75-.41-3.98-16.96,1.75.41,3.98ZM1117.91,973.42l16.96-1.75-.41-3.98-16.96,1.75.41,3.98ZM1090.34,976.26l16.96-1.75-.41-3.98-16.96,1.75.41,3.98ZM1062.77,979.11l16.96-1.75-.41-3.98-16.96,1.75.41,3.98ZM1035.2,981.96l16.96-1.75-.41-3.98-16.96,1.75.41,3.98ZM1007.64,984.81l16.96-1.75-.41-3.98-16.96,1.75.41,3.98ZM988.55,986.78l8.48-.88-.41-3.98-8.48.88.41,3.98ZM978.64,990.33c2.87-1.91,6.24-3.17,9.91-3.55l-.41-3.98c-4.34.45-8.32,1.94-11.72,4.2l2.22,3.33ZM968.93,1010.92c-.38-3.68.17-7.23,1.45-10.43l-3.71-1.49c-1.52,3.79-2.16,7.99-1.72,12.33l3.98-.41ZM970.07,1021.94l-1.14-11.02-3.98.41,1.14,11.02,3.98-.41ZM972.63,1046.73l-1.14-11.02-3.98.41,1.14,11.02,3.98-.41ZM970.91,1059.06c1.52-3.79,2.16-7.99,1.72-12.33l-3.98.41c.38,3.68-.17,7.23-1.45,10.43l3.71,1.49ZM949.44,1075.27c4.34-.45,8.32-1.94,11.72-4.2l-2.22-3.33c-2.87,1.91-6.24,3.17-9.91,3.55l.41,3.98ZM940.98,1076.14l8.46-.87-.41-3.98-8.46.87.41,3.98ZM913.48,1078.98l16.92-1.75-.41-3.98-16.92,1.75.41,3.98ZM885.98,1081.82l16.92-1.75-.41-3.98-16.92,1.75.41,3.98ZM858.49,1084.66l16.92-1.75-.41-3.98-16.92,1.75.41,3.98ZM830.99,1087.5l16.92-1.75-.41-3.98-16.92,1.75.41,3.98ZM803.49,1090.34l16.92-1.75-.41-3.98-16.92,1.75.41,3.98ZM776,1093.18l16.92-1.75-.41-3.98-16.92,1.75.41,3.98ZM756.96,1095.15l8.46-.87-.41-3.98-8.46.87.41,3.98ZM1172.63,963.74c-1.1.11-1.9,1.1-1.78,2.19s1.1,1.9,2.19,1.78l-.41-3.98ZM1162.44,968.82c1.1-.11,1.9-1.1,1.78-2.19s-1.1-1.9-2.19-1.78l.41,3.98ZM1145.06,966.59c-1.1.11-1.9,1.1-1.78,2.19s1.1,1.9,2.19,1.78l-.41-3.98ZM1134.87,971.66c1.1-.11,1.9-1.1,1.78-2.19s-1.1-1.9-2.19-1.78l.41,3.98ZM1117.5,969.44c-1.1.11-1.9,1.1-1.78,2.19s1.1,1.9,2.19,1.78l-.41-3.98ZM1107.3,974.51c1.1-.11,1.9-1.1,1.78-2.19s-1.1-1.9-2.19-1.78l.41,3.98ZM1089.93,972.28c-1.1.11-1.9,1.1-1.78,2.19s1.1,1.9,2.19,1.78l-.41-3.98ZM1079.74,977.36c1.1-.11,1.9-1.1,1.78-2.19s-1.1-1.9-2.19-1.78l.41,3.98ZM1062.36,975.13c-1.1.11-1.9,1.1-1.78,2.19s1.1,1.9,2.19,1.78l-.41-3.98ZM1052.17,980.21c1.1-.11,1.9-1.1,1.78-2.19s-1.1-1.9-2.19-1.78l.41,3.98ZM1034.79,977.98c-1.1.11-1.9,1.1-1.78,2.19s1.1,1.9,2.19,1.78l-.41-3.98ZM1024.6,983.05c1.1-.11,1.9-1.1,1.78-2.19s-1.1-1.9-2.19-1.78l.41,3.98ZM1007.22,980.83c-1.1.11-1.9,1.1-1.78,2.19s1.1,1.9,2.19,1.78l-.41-3.98ZM997.03,985.9c1.1-.11,1.9-1.1,1.78-2.19s-1.1-1.9-2.19-1.78l.41,3.98ZM976.42,987c-.92.61-1.17,1.85-.56,2.77.61.92,1.85,1.17,2.77.56l-2.22-3.33ZM970.38,1000.49c.41-1.03-.09-2.19-1.11-2.6s-2.19.09-2.6,1.11l3.71,1.49ZM966.09,1022.35c.11,1.1,1.1,1.9,2.19,1.78s1.9-1.1,1.78-2.19l-3.98.41ZM971.49,1035.71c-.11-1.1-1.1-1.9-2.19-1.78s-1.9,1.1-1.78,2.19l3.98-.41ZM967.2,1057.57c-.41,1.03.09,2.19,1.11,2.6,1.03.41,2.19-.09,2.6-1.11l-3.71-1.49ZM961.15,1071.06c.92-.61,1.17-1.85.56-2.77-.61-.92-1.85-1.17-2.77-.56l2.22,3.33ZM940.56,1072.16c-1.1.11-1.9,1.1-1.78,2.19s1.1,1.9,2.19,1.78l-.41-3.98ZM930.4,1077.23c1.1-.11,1.9-1.1,1.78-2.19s-1.1-1.9-2.19-1.78l.41,3.98ZM913.07,1075c-1.1.11-1.9,1.1-1.78,2.19s1.1,1.9,2.19,1.78l-.41-3.98ZM902.9,1080.07c1.1-.11,1.9-1.1,1.78-2.19s-1.1-1.9-2.19-1.78l.41,3.98ZM885.57,1077.84c-1.1.11-1.9,1.1-1.78,2.19s1.1,1.9,2.19,1.78l-.41-3.98ZM875.41,1082.91c1.1-.11,1.9-1.1,1.78-2.19s-1.1-1.9-2.19-1.78l.41,3.98ZM858.07,1080.68c-1.1.11-1.9,1.1-1.78,2.19s1.1,1.9,2.19,1.78l-.41-3.98ZM847.91,1085.75c1.1-.11,1.9-1.1,1.78-2.19s-1.1-1.9-2.19-1.78l.41,3.98ZM830.58,1083.52c-1.1.11-1.9,1.1-1.78,2.19s1.1,1.9,2.19,1.78l-.41-3.98ZM820.41,1088.59c1.1-.11,1.9-1.1,1.78-2.19s-1.1-1.9-2.19-1.78l.41,3.98ZM803.08,1086.36c-1.1.11-1.9,1.1-1.78,2.19s1.1,1.9,2.19,1.78l-.41-3.98ZM792.92,1091.43c1.1-.11,1.9-1.1,1.78-2.19s-1.1-1.9-2.19-1.78l.41,3.98ZM775.59,1089.2c-1.1.11-1.9,1.1-1.78,2.19s1.1,1.9,2.19,1.78l-.41-3.98ZM765.42,1094.27c1.1-.11,1.9-1.1,1.78-2.19s-1.1-1.9-2.19-1.78l.41,3.98ZM755.2,1091.9c-.7.86-.57,2.12.29,2.81l13.97,11.35c.86.7,2.12.57,2.81-.29.7-.86.57-2.12-.29-2.81l-12.42-10.09,10.09-12.42c.7-.86.57-2.12-.29-2.81-.86-.7-2.12-.57-2.81.29l-11.35,13.97ZM1181.52,966.84c1.1-.11,1.9-1.1,1.78-2.19s-1.1-1.9-2.19-1.78l.41,3.98Z"/>
  <rect class="st0" x="192.7" y="1108.68" width="208" height="64" rx="25.6" ry="25.6" transform="translate(-115.64 36.52) rotate(-5.9)"/>
  <path class="st1" d="M539.21,1113.62l-135.28,13.97.41,3.98,135.28-13.97-.41-3.98ZM402.58,1128.32c-.7.86-.57,2.12.29,2.81l13.97,11.35c.86.7,2.12.57,2.81-.29.7-.86.57-2.12-.29-2.81l-12.42-10.09,10.09-12.42c.7-.86.57-2.12-.29-2.81s-2.12-.57-2.81.29l-11.35,13.97ZM539.62,1117.6c1.1-.11,1.9-1.1,1.78-2.19s-1.1-1.9-2.19-1.78l.41,3.98Z"/>
  <rect class="st0" x="204.21" y="1220.09" width="208" height="64" rx="25.6" ry="25.6" transform="translate(-127.02 38.3) rotate(-5.9)"/>
  <path class="st1" d="M495.44,1118.14c-14.28,1.48-24.67,14.25-23.19,28.53l3.98-.41c-1.25-12.09,7.54-22.9,19.62-24.14l-.41-3.98ZM478.82,1210.34c1.25,12.09-7.54,22.9-19.62,24.14l.41,3.98c14.28-1.48,24.67-14.25,23.19-28.53l-3.98.41ZM459.2,1234.48l-43.77,4.52.41,3.98,43.77-4.52-.41-3.98ZM472.25,1146.67l6.58,63.66,3.98-.41-6.58-63.66-3.98.41ZM539.21,1113.62l-43.77,4.52.41,3.98,43.77-4.52-.41-3.98ZM414.09,1239.73c-.7.86-.57,2.12.29,2.81l13.97,11.35c.86.7,2.12.57,2.81-.29.7-.86.57-2.12-.29-2.81l-12.42-10.09,10.09-12.42c.7-.86.57-2.12-.29-2.81s-2.12-.57-2.81.29l-11.35,13.97ZM539.62,1117.6c1.1-.11,1.9-1.1,1.78-2.19s-1.1-1.9-2.19-1.78l.41,3.98Z"/>
  <rect class="st0" x="181.19" y="997.27" width="208" height="64" rx="25.6" ry="25.6" transform="translate(-104.25 34.75) rotate(-5.9)"/>
  <path class="st1" d="M495.44,1118.14c-12.09,1.25-22.9-7.54-24.14-19.62l-3.98.41c1.48,14.28,14.25,24.67,28.53,23.19l-.41-3.98ZM464.72,1034.86c-1.48-14.28-14.25-24.67-28.53-23.19l.41,3.98c12.09-1.25,22.9,7.54,24.14,19.62l3.98-.41ZM436.18,1011.67l-43.77,4.52.41,3.98,43.77-4.52-.41-3.98ZM471.29,1098.52l-6.58-63.66-3.98.41,6.58,63.66,3.98-.41ZM539.21,1113.62l-43.77,4.52.41,3.98,43.77-4.52-.41-3.98ZM391.07,1016.91c-.7.86-.57,2.12.29,2.81l13.97,11.35c.86.7,2.12.57,2.81-.29s.57-2.12-.29-2.81l-12.42-10.09,10.09-12.42c.7-.86.57-2.12-.29-2.81-.86-.7-2.12-.57-2.81.29l-11.35,13.97ZM539.62,1117.6c1.1-.11,1.9-1.1,1.78-2.19s-1.1-1.9-2.19-1.78l.41,3.98Z"/>
  <rect class="st0" x="965.79" y="1274.12" width="208" height="64" rx="25.6" ry="25.6" transform="translate(-128.54 116.84) rotate(-5.9)"/>
  <path class="st1" d="M1353.75,1115.94c1.25,12.09-7.54,22.9-19.62,24.14l.41,3.98c14.28-1.48,24.67-14.25,23.19-28.53l-3.98.41ZM1079.49,1166.38c-14.28,1.48-24.67,14.25-23.19,28.53l3.98-.41c-1.25-12.09,7.54-22.9,19.62-24.14l-.41-3.98ZM1056.3,1194.92l7.55,73.11,3.98-.41-7.55-73.11-3.98.41ZM1334.13,1140.08l-254.65,26.3.41,3.98,254.65-26.3-.41-3.98ZM1346.15,1042.33l7.6,73.61,3.98-.41-7.6-73.61-3.98.41ZM1064.58,1269.38c.86.7,2.12.57,2.81-.29l11.35-13.97c.7-.86.57-2.12-.29-2.81-.86-.7-2.12-.57-2.81.29l-10.09,12.42-12.42-10.09c-.86-.7-2.12-.57-2.81.29-.7.86-.57,2.12.29,2.81l13.97,11.35ZM1350.13,1041.92c-.11-1.1-1.1-1.9-2.19-1.78s-1.9,1.1-1.78,2.19l3.98-.41Z"/>
  <rect class="st0" x="615.66" y="1310.29" width="208" height="64" rx="25.6" ry="25.6" transform="translate(-134.11 81.05) rotate(-5.9)"/>
  <path class="st1" d="M962.16,1315.23l-135.28,13.97.41,3.98,135.28-13.97-.41-3.98ZM825.53,1329.93c-.7.86-.57,2.12.29,2.81l13.97,11.35c.86.7,2.12.57,2.81-.29.7-.86.57-2.12-.29-2.81l-12.42-10.09,10.09-12.42c.7-.86.57-2.12-.29-2.81-.86-.7-2.12-.57-2.81.29l-11.35,13.97ZM962.57,1319.21c1.1-.11,1.9-1.1,1.78-2.19s-1.1-1.9-2.19-1.78l.41,3.98Z"/>
  <rect class="st0" x="627.16" y="1421.7" width="208" height="64" rx="25.6" ry="25.6" transform="translate(-145.5 82.82) rotate(-5.9)"/>
  <path class="st1" d="M918.39,1319.75c-14.28,1.48-24.67,14.25-23.19,28.53l3.98-.41c-1.25-12.09,7.54-22.9,19.62-24.14l-.41-3.98ZM901.78,1411.94c1.25,12.09-7.54,22.9-19.62,24.14l.41,3.98c14.28-1.48,24.67-14.25,23.19-28.53l-3.98.41ZM882.15,1436.09l-43.77,4.52.41,3.98,43.77-4.52-.41-3.98ZM895.2,1348.28l6.58,63.66,3.98-.41-6.58-63.66-3.98.41ZM962.16,1315.23l-43.77,4.52.41,3.98,43.77-4.52-.41-3.98ZM837.04,1441.34c-.7.86-.57,2.12.29,2.81l13.97,11.35c.86.7,2.12.57,2.81-.29.7-.86.57-2.12-.29-2.81l-12.42-10.09,10.09-12.42c.7-.86.57-2.12-.29-2.81-.86-.7-2.12-.57-2.81.29l-11.35,13.97ZM962.57,1319.21c1.1-.11,1.9-1.1,1.78-2.19s-1.1-1.9-2.19-1.78l.41,3.98Z"/>
  <rect class="st0" x="638.67" y="1533.1" width="208" height="64" rx="25.6" ry="25.6" transform="translate(-156.88 84.59) rotate(-5.9)"/>
  <path class="st1" d="M918.39,1319.75c-14.28,1.48-24.67,14.25-23.19,28.53l3.98-.41c-1.25-12.09,7.54-22.9,19.62-24.14l-.41-3.98ZM913.29,1523.35c1.25,12.09-7.54,22.9-19.62,24.14l.41,3.98c14.28-1.48,24.67-14.25,23.19-28.53l-3.98.41ZM893.66,1547.5l-43.77,4.52.41,3.98,43.77-4.52-.41-3.98ZM895.2,1348.28l18.08,175.07,3.98-.41-18.08-175.07-3.98.41ZM962.16,1315.23l-43.77,4.52.41,3.98,43.77-4.52-.41-3.98ZM848.55,1552.74c-.7.86-.57,2.12.29,2.81l13.97,11.35c.86.7,2.12.57,2.81-.29.7-.86.57-2.12-.29-2.81l-12.42-10.09,10.09-12.42c.7-.86.57-2.12-.29-2.81-.86-.7-2.12-.57-2.81.29l-11.35,13.97ZM962.57,1319.21c1.1-.11,1.9-1.1,1.78-2.19s-1.1-1.9-2.19-1.78l.41,3.98Z"/>
  <rect class="st0" x="650.18" y="1644.51" width="208" height="64" rx="25.6" ry="25.6" transform="translate(-168.27 86.37) rotate(-5.9)"/>
  <path class="st1" d="M918.39,1319.75c-14.28,1.48-24.67,14.25-23.19,28.53l3.98-.41c-1.25-12.09,7.54-22.9,19.62-24.14l-.41-3.98ZM924.79,1634.76c1.25,12.09-7.54,22.9-19.62,24.14l.41,3.98c14.28-1.48,24.67-14.25,23.19-28.53l-3.98.41ZM905.17,1658.9l-43.77,4.52.41,3.98,43.77-4.52-.41-3.98ZM895.2,1348.28l29.59,286.48,3.98-.41-29.59-286.48-3.98.41ZM962.16,1315.23l-43.77,4.52.41,3.98,43.77-4.52-.41-3.98ZM860.06,1664.15c-.7.86-.57,2.12.29,2.81l13.97,11.35c.86.7,2.12.57,2.81-.29.7-.86.57-2.12-.29-2.81l-12.42-10.09,10.09-12.42c.7-.86.57-2.12-.29-2.81s-2.12-.57-2.81.29l-11.35,13.97ZM962.57,1319.21c1.1-.11,1.9-1.1,1.78-2.19s-1.1-1.9-2.19-1.78l.41,3.98Z"/>
  <rect class="st0" x="661.69" y="1755.92" width="208" height="64" rx="25.6" ry="25.6" transform="translate(-179.66 88.14) rotate(-5.9)"/>
  <path class="st1" d="M918.39,1319.75c-14.28,1.48-24.67,14.25-23.19,28.53l3.98-.41c-1.25-12.09,7.54-22.9,19.62-24.14l-.41-3.98ZM936.3,1746.17c1.25,12.09-7.54,22.9-19.62,24.14l.41,3.98c14.28-1.48,24.67-14.25,23.19-28.53l-3.98.41ZM916.68,1770.31l-43.77,4.52.41,3.98,43.77-4.52-.41-3.98ZM895.2,1348.28l41.1,397.88,3.98-.41-41.1-397.88-3.98.41ZM962.16,1315.23l-43.77,4.52.41,3.98,43.77-4.52-.41-3.98ZM871.57,1775.56c-.7.86-.57,2.12.29,2.81l13.97,11.35c.86.7,2.12.57,2.81-.29.7-.86.57-2.12-.29-2.81l-12.42-10.09,10.09-12.42c.7-.86.57-2.12-.29-2.81s-2.12-.57-2.81.29l-11.35,13.97ZM962.57,1319.21c1.1-.11,1.9-1.1,1.78-2.19s-1.1-1.9-2.19-1.78l.41,3.98Z"/>
  <rect class="st0" x="85.25" y="808.13" width="208" height="64" rx="25.6" ry="25.6" transform="translate(-85.32 23.89) rotate(-5.9)"/>
  <path class="st1" d="M481.17,649.12c-14.28,1.48-24.67,14.25-23.19,28.53l3.98-.41c-1.25-12.09,7.54-22.9,19.62-24.14l-.41-3.98ZM469.28,787.08c1.25,12.09-7.54,22.9-19.62,24.14l.41,3.98c14.28-1.48,24.67-14.25,23.19-28.53l-3.98.41ZM449.66,811.22l-153.18,15.82.41,3.98,153.18-15.82-.41-3.98ZM457.98,677.66l11.3,109.42,3.98-.41-11.3-109.42-3.98.41ZM634.36,633.3l-153.18,15.82.41,3.98,153.18-15.82-.41-3.98ZM295.13,827.77c-.7.86-.57,2.12.29,2.81l13.97,11.35c.86.7,2.12.57,2.81-.29s.57-2.12-.29-2.81l-12.42-10.09,10.09-12.42c.7-.86.57-2.12-.29-2.81-.86-.7-2.12-.57-2.81.29l-11.35,13.97ZM634.77,637.28c1.1-.11,1.9-1.1,1.78-2.19s-1.1-1.9-2.19-1.78l.41,3.98Z"/>
  <rect class="st0" x="2342.76" y="1367.49" width="240" height="64" rx="25.6" ry="25.6" transform="translate(-130.76 260.46) rotate(-5.9)"/>
  <path class="st1" d="M1365.88,1233.31c1.48,14.28,14.25,24.67,28.53,23.19l-.41-3.98c-12.09,1.25-22.9-7.54-24.14-19.62l-3.98.41ZM2412.99,1151.29c12.09-1.25,22.9,7.54,24.14,19.62l3.98-.41c-1.48-14.28-14.25-24.67-28.53-23.19l.41,3.98ZM2437.14,1170.91l19.68,190.49,3.98-.41-19.68-190.49-3.98.41ZM1394.41,1256.5l1018.58-105.22-.41-3.98-1018.58,105.22.41,3.98ZM1346.15,1042.33l19.73,190.98,3.98-.41-19.73-190.98-3.98.41ZM2457.54,1362.74c.86.7,2.12.57,2.81-.29l11.35-13.97c.7-.86.57-2.12-.29-2.81-.86-.7-2.12-.57-2.81.29l-10.09,12.42-12.42-10.09c-.86-.7-2.12-.57-2.81.29-.7.86-.57,2.12.29,2.81l13.97,11.35ZM1350.13,1041.92c-.11-1.1-1.1-1.9-2.19-1.78s-1.9,1.1-1.78,2.19l3.98-.41Z"/>
  <rect class="st0" x="2724.73" y="1328.03" width="240" height="64" rx="25.6" ry="25.6" transform="translate(-124.69 299.5) rotate(-5.9)"/>
  <path class="st1" d="M2586.31,1388.73l135.28-13.97-.41-3.98-135.28,13.97.41,3.98ZM2722.94,1374.03c.7-.86.57-2.12-.29-2.81l-13.97-11.35c-.86-.7-2.12-.57-2.81.29-.7.86-.57,2.12.29,2.81l12.42,10.09-10.09,12.42c-.7.86-.57,2.12.29,2.81.86.7,2.12.57,2.81-.29l11.35-13.97ZM2585.9,1384.76c-1.1.11-1.9,1.1-1.78,2.19s1.1,1.9,2.19,1.78l-.41-3.98Z"/>
  <rect class="st0" x="2713.22" y="1216.62" width="240" height="64" rx="25.6" ry="25.6" transform="translate(-113.3 297.72) rotate(-5.9)"/>
  <path class="st1" d="M2630.08,1384.21c14.28-1.48,24.67-14.25,23.19-28.53l-3.98.41c1.25,12.09-7.54,22.9-19.62,24.14l.41,3.98ZM2646.69,1292.02c-1.25-12.09,7.54-22.9,19.62-24.14l-.41-3.98c-14.28,1.48-24.67,14.25-23.19,28.53l3.98-.41ZM2666.31,1267.87l43.77-4.52-.41-3.98-43.77,4.52.41,3.98ZM2653.27,1355.68l-6.58-63.66-3.98.41,6.58,63.66,3.98-.41ZM2586.31,1388.73l43.77-4.52-.41-3.98-43.77,4.52.41,3.98ZM2711.43,1262.63c.7-.86.57-2.12-.29-2.81l-13.97-11.35c-.86-.7-2.12-.57-2.81.29-.7.86-.57,2.12.29,2.81l12.42,10.09-10.09,12.42c-.7.86-.57,2.12.29,2.81.86.7,2.12.57,2.81-.29l11.35-13.97ZM2585.9,1384.76c-1.1.11-1.9,1.1-1.78,2.19s1.1,1.9,2.19,1.78l-.41-3.98Z"/>
  <rect class="st0" x="2736.24" y="1439.44" width="240" height="64" rx="25.6" ry="25.6" transform="translate(-136.07 301.27) rotate(-5.9)"/>
  <path class="st1" d="M2630.08,1384.21c12.09-1.25,22.9,7.54,24.14,19.62l3.98-.41c-1.48-14.28-14.25-24.67-28.53-23.19l.41,3.98ZM2660.8,1467.5c1.48,14.28,14.25,24.67,28.53,23.19l-.41-3.98c-12.09,1.25-22.9-7.54-24.14-19.62l-3.98.41ZM2689.33,1490.69l43.77-4.52-.41-3.98-43.77,4.52.41,3.98ZM2654.22,1403.84l6.58,63.66,3.98-.41-6.58-63.66-3.98.41ZM2586.31,1388.73l43.77-4.52-.41-3.98-43.77,4.52.41,3.98ZM2734.44,1485.44c.7-.86.57-2.12-.29-2.81l-13.97-11.35c-.86-.7-2.12-.57-2.81.29-.7.86-.57,2.12.29,2.81l12.42,10.09-10.09,12.42c-.7.86-.57,2.12.29,2.81.86.7,2.12.57,2.81-.29l11.35-13.97ZM2585.9,1384.76c-1.1.11-1.9,1.1-1.78,2.19s1.1,1.9,2.19,1.78l-.41-3.98Z"/>
  <rect class="st0" x="37.16" y="342.61" width="208" height="64" rx="25.6" ry="25.6" transform="translate(-37.74 16.49) rotate(-5.9)"/>
  <path class="st1" d="M481.17,649.12c-12.09,1.25-22.9-7.54-24.14-19.62l-3.98.41c1.48,14.28,14.25,24.67,28.53,23.19l-.41-3.98ZM430.11,368.89c-1.48-14.28-14.25-24.67-28.53-23.19l.41,3.98c12.09-1.25,22.9,7.54,24.14,19.62l3.98-.41ZM401.57,345.7l-153.18,15.82.41,3.98,153.18-15.82-.41-3.98ZM457.03,629.5l-26.92-260.61-3.98.41,26.92,260.61,3.98-.41ZM634.36,633.3l-153.18,15.82.41,3.98,153.18-15.82-.41-3.98ZM247.04,362.25c-.7.86-.57,2.12.29,2.81l13.97,11.35c.86.7,2.12.57,2.81-.29s.57-2.12-.29-2.81l-12.42-10.09,10.09-12.42c.7-.86.57-2.12-.29-2.81-.86-.7-2.12-.57-2.81.29l-11.35,13.97ZM634.77,637.28c1.1-.11,1.9-1.1,1.78-2.19s-1.1-1.9-2.19-1.78l.41,3.98Z"/>
  <rect class="st0" x="2345.28" y="1701.71" width="304" height="64" rx="25.6" ry="25.6" transform="translate(-164.92 265.77) rotate(-5.9)"/>
  <path class="st1" d="M1374.92,1320.85c1.48,14.28,14.25,24.67,28.53,23.19l-.41-3.98c-12.09,1.25-22.9-7.54-24.14-19.62l-3.98.41ZM1857.04,1297.18c12.09-1.25,22.9,7.54,24.14,19.62l3.98-.41c-1.48-14.28-14.25-24.67-28.53-23.19l.41,3.98ZM1903.17,1529.67c1.48,14.28,14.25,24.67,28.53,23.19l-.41-3.98c-12.09,1.25-22.9-7.54-24.14-19.62l-3.98.41ZM2448.96,1499.43c12.09-1.25,22.9,7.54,24.14,19.62l3.98-.41c-1.48-14.28-14.25-24.67-28.53-23.19l.41,3.98ZM2473.1,1519.06l18.24,176.56,3.98-.41-18.24-176.56-3.98.41ZM1931.71,1552.86l517.25-53.43-.41-3.98-517.25,53.43.41,3.98ZM1881.19,1316.81l21.99,212.87,3.98-.41-21.99-212.87-3.98.41ZM1403.46,1344.04l453.59-46.85-.41-3.98-453.59,46.85.41,3.98ZM1346.15,1042.33l28.77,278.52,3.98-.41-28.77-278.52-3.98.41ZM2492.07,1696.96c.86.7,2.12.57,2.81-.29l11.35-13.97c.7-.86.57-2.12-.29-2.81-.86-.7-2.12-.57-2.81.29l-10.09,12.42-12.42-10.09c-.86-.7-2.12-.57-2.81.29-.7.86-.57,2.12.29,2.81l13.97,11.35ZM1350.13,1041.92c-.11-1.1-1.1-1.9-2.19-1.78s-1.9,1.1-1.78,2.19l3.98-.41Z"/>
  <rect class="st0" x="2790.91" y="1655.68" width="304" height="64" rx="25.6" ry="25.6" transform="translate(-157.83 311.32) rotate(-5.9)"/>
  <path class="st1" d="M2652.66,1719.67l135.28-13.97-.41-3.98-135.28,13.97.41,3.98ZM2789.29,1704.97c.7-.86.57-2.12-.29-2.81l-13.97-11.35c-.86-.7-2.12-.57-2.81.29-.7.86-.57,2.12.29,2.81l12.42,10.09-10.09,12.42c-.7.86-.57,2.12.29,2.81.86.7,2.12.57,2.81-.29l11.35-13.97ZM2652.25,1715.69c-1.1.11-1.9,1.1-1.78,2.19s1.1,1.9,2.19,1.78l-.41-3.98Z"/>
  <rect class="st0" x="2779.4" y="1544.27" width="304" height="64" rx="25.6" ry="25.6" transform="translate(-146.45 309.55) rotate(-5.9)"/>
  <path class="st1" d="M2696.43,1715.15c14.28-1.48,24.67-14.25,23.19-28.53l-3.98.41c1.25,12.09-7.54,22.9-19.62,24.14l.41,3.98ZM2713.05,1622.95c-1.25-12.09,7.54-22.9,19.62-24.14l-.41-3.98c-14.28,1.48-24.67,14.25-23.19,28.53l3.98-.41ZM2732.67,1598.81l43.77-4.52-.41-3.98-43.77,4.52.41,3.98ZM2719.62,1686.61l-6.58-63.66-3.98.41,6.58,63.66,3.98-.41ZM2652.66,1719.67l43.77-4.52-.41-3.98-43.77,4.52.41,3.98ZM2777.78,1593.56c.7-.86.57-2.12-.29-2.81l-13.97-11.35c-.86-.7-2.12-.57-2.81.29-.7.86-.57,2.12.29,2.81l12.42,10.09-10.09,12.42c-.7.86-.57,2.12.29,2.81.86.7,2.12.57,2.81-.29l11.35-13.97ZM2652.25,1715.69c-1.1.11-1.9,1.1-1.78,2.19s1.1,1.9,2.19,1.78l-.41-3.98Z"/>
  <rect class="st0" x="2802.42" y="1767.08" width="304" height="64" rx="25.6" ry="25.6" transform="translate(-169.22 313.09) rotate(-5.9)"/>
  <path class="st1" d="M2696.43,1715.15c12.09-1.25,22.9,7.54,24.14,19.62l3.98-.41c-1.48-14.28-14.25-24.67-28.53-23.19l.41,3.98ZM2727.15,1798.43c1.48,14.28,14.25,24.67,28.53,23.19l-.41-3.98c-12.09,1.25-22.9-7.54-24.14-19.62l-3.98.41ZM2755.68,1821.62l43.77-4.52-.41-3.98-43.77,4.52.41,3.98ZM2720.57,1734.77l6.58,63.66,3.98-.41-6.58-63.66-3.98.41ZM2652.66,1719.67l43.77-4.52-.41-3.98-43.77,4.52.41,3.98ZM2800.8,1816.37c.7-.86.57-2.12-.29-2.81l-13.97-11.35c-.86-.7-2.12-.57-2.81.29-.7.86-.57,2.12.29,2.81l12.42,10.09-10.09,12.42c-.7.86-.57,2.12.29,2.81.86.7,2.12.57,2.81-.29l11.35-13.97ZM2652.25,1715.69c-1.1.11-1.9,1.1-1.78,2.19s1.1,1.9,2.19,1.78l-.41-3.98Z"/>
  <rect class="st0" x="672.79" y="1863.35" width="208" height="64" rx="25.6" ry="25.6" transform="translate(-190.64 89.85) rotate(-5.9)"/>
  <path class="st1" d="M918.39,1319.75c-14.28,1.48-24.67,14.25-23.19,28.53l3.98-.41c-1.25-12.09,7.54-22.9,19.62-24.14l-.41-3.98ZM947.4,1853.59c1.25,12.09-7.54,22.9-19.62,24.14l.41,3.98c14.28-1.48,24.67-14.25,23.19-28.53l-3.98.41ZM927.78,1877.74l-43.77,4.52.41,3.98,43.77-4.52-.41-3.98ZM895.2,1348.28l52.2,505.31,3.98-.41-52.2-505.31-3.98.41ZM962.16,1315.23l-43.77,4.52.41,3.98,43.77-4.52-.41-3.98ZM882.66,1882.99c-.7.86-.57,2.12.29,2.81l13.97,11.35c.86.7,2.12.57,2.81-.29s.57-2.12-.29-2.81l-12.42-10.09,10.09-12.42c.7-.86.57-2.12-.29-2.81s-2.12-.57-2.81.29l-11.35,13.97ZM962.57,1319.21c1.1-.11,1.9-1.1,1.78-2.19s-1.1-1.9-2.19-1.78l.41,3.98Z"/>
  <rect class="st0" x="2813.93" y="1878.49" width="304" height="64" rx="25.6" ry="25.6" transform="translate(-180.61 314.86) rotate(-5.9)"/>
  <path class="st1" d="M2696.43,1715.15c12.09-1.25,22.9,7.54,24.14,19.62l3.98-.41c-1.48-14.28-14.25-24.67-28.53-23.19l.41,3.98ZM2738.66,1909.84c1.48,14.28,14.25,24.67,28.53,23.19l-.41-3.98c-12.09,1.25-22.9-7.54-24.14-19.62l-3.98.41ZM2767.19,1933.03l43.77-4.52-.41-3.98-43.77,4.52.41,3.98ZM2720.57,1734.77l18.08,175.07,3.98-.41-18.08-175.07-3.98.41ZM2652.66,1719.67l43.77-4.52-.41-3.98-43.77,4.52.41,3.98ZM2812.31,1927.78c.7-.86.57-2.12-.29-2.81l-13.97-11.35c-.86-.7-2.12-.57-2.81.29-.7.86-.57,2.12.29,2.81l12.42,10.09-10.09,12.42c-.7.86-.57,2.12.29,2.81.86.7,2.12.57,2.81-.29l11.35-13.97ZM2652.25,1715.69c-1.1.11-1.9,1.1-1.78,2.19s1.1,1.9,2.19,1.78l-.41-3.98Z"/>
  <rect class="st0" x="683.88" y="1970.77" width="208" height="64" rx="25.6" ry="25.6" transform="translate(-201.62 91.56) rotate(-5.9)"/>
  <path class="st1" d="M918.39,1319.75c-14.28,1.48-24.67,14.25-23.19,28.53l3.98-.41c-1.25-12.09,7.54-22.9,19.62-24.14l-.41-3.98ZM958.5,1961.02c1.25,12.09-7.54,22.9-19.62,24.14l.41,3.98c14.28-1.48,24.67-14.25,23.19-28.53l-3.98.41ZM938.87,1985.17l-43.77,4.52.41,3.98,43.77-4.52-.41-3.98ZM895.2,1348.28l63.29,612.74,3.98-.41-63.29-612.74-3.98.41ZM962.16,1315.23l-43.77,4.52.41,3.98,43.77-4.52-.41-3.98ZM893.76,1990.42c-.7.86-.57,2.12.29,2.81l13.97,11.35c.86.7,2.12.57,2.81-.29s.57-2.12-.29-2.81l-12.42-10.09,10.09-12.42c.7-.86.57-2.12-.29-2.81s-2.12-.57-2.81.29l-11.35,13.97ZM962.57,1319.21c1.1-.11,1.9-1.1,1.78-2.19s-1.1-1.9-2.19-1.78l.41,3.98Z"/>
  <rect class="st0" x="2945.97" y="822.62" width="240" height="64" rx="25.6" ry="25.6" transform="translate(-71.59 319.55) rotate(-5.9)"/>
  <path class="st1" d="M1529.67,930.88c12.09-1.25,22.9,7.54,24.14,19.62l3.98-.41c-1.48-14.28-14.25-24.67-28.53-23.19l.41,3.98ZM1562.86,1038.04c1.48,14.28,14.25,24.67,28.53,23.19l-.41-3.98c-12.09,1.25-22.9-7.54-24.14-19.62l-3.98.41ZM1686.88,1051.37c12.09-1.25,22.9,7.54,24.14,19.62l3.98-.41c-1.48-14.28-14.25-24.67-28.53-23.19l.41,3.98ZM1719.25,1150.57c1.48,14.28,14.25,24.67,28.53,23.19l-.41-3.98c-12.09,1.25-22.9-7.54-24.14-19.62l-3.98.41ZM2845.94,1060.32c14.28-1.48,24.67-14.25,23.19-28.53l-3.98.41c1.25,12.09-7.54,22.9-19.62,24.14l.41,3.98ZM2855.57,900.48c-1.25-12.09,7.54-22.9,19.62-24.14l-.41-3.98c-14.28,1.48-24.67,14.25-23.19,28.53l3.98-.41ZM2875.19,876.34l65.15-6.73-.41-3.98-65.15,6.73.41,3.98ZM2869.13,1031.79l-13.56-131.3-3.98.41,13.56,131.3,3.98-.41ZM1747.78,1173.76l1098.16-113.44-.41-3.98-1098.16,113.44.41,3.98ZM1711.03,1070.99l8.22,79.58,3.98-.41-8.22-79.58-3.98.41ZM1591.39,1061.23l95.49-9.86-.41-3.98-95.49,9.86.41,3.98ZM1553.82,950.5l9.04,87.53,3.98-.41-9.04-87.53-3.98.41ZM1495.85,934.37l33.82-3.49-.41-3.98-33.82,3.49.41,3.98ZM2941.69,868.88c.7-.86.57-2.12-.29-2.81l-13.97-11.35c-.86-.7-2.12-.57-2.81.29-.7.86-.57,2.12.29,2.81l12.42,10.09-10.09,12.42c-.7.86-.57,2.12.29,2.81.86.7,2.12.57,2.81-.29l11.35-13.97ZM1495.44,930.4c-1.1.11-1.9,1.1-1.78,2.19s1.1,1.9,2.19,1.78l-.41-3.98Z"/>
  <rect class="st0" x="604.15" y="1198.88" width="208" height="64" rx="25.6" ry="25.6" transform="translate(-122.73 79.28) rotate(-5.9)"/>
  <path class="st1" d="M918.39,1319.75c-12.09,1.25-22.9-7.54-24.14-19.62l-3.98.41c1.48,14.28,14.25,24.67,28.53,23.19l-.41-3.98ZM887.67,1236.46c-1.48-14.28-14.25-24.67-28.53-23.19l.41,3.98c12.09-1.25,22.9,7.54,24.14,19.62l3.98-.41ZM859.14,1213.27l-43.77,4.52.41,3.98,43.77-4.52-.41-3.98ZM894.25,1300.13l-6.58-63.66-3.98.41,6.58,63.66,3.98-.41ZM962.16,1315.23l-43.77,4.52.41,3.98,43.77-4.52-.41-3.98ZM814.02,1218.52c-.7.86-.57,2.12.29,2.81l13.97,11.35c.86.7,2.12.57,2.81-.29.7-.86.57-2.12-.29-2.81l-12.42-10.09,10.09-12.42c.7-.86.57-2.12-.29-2.81-.86-.7-2.12-.57-2.81.29l-11.35,13.97ZM962.57,1319.21c1.1-.11,1.9-1.1,1.78-2.19s-1.1-1.9-2.19-1.78l.41,3.98Z"/>
  <rect class="st0" x="3327.93" y="783.17" width="240" height="64" rx="25.6" ry="25.6" transform="translate(-65.51 358.59) rotate(-5.9)"/>
  <path class="st1" d="M3189.52,843.87l135.28-13.97-.41-3.98-135.28,13.97.41,3.98ZM3326.14,829.17c.7-.86.57-2.12-.29-2.81l-13.97-11.35c-.86-.7-2.12-.57-2.81.29-.7.86-.57,2.12.29,2.81l12.42,10.09-10.09,12.42c-.7.86-.57,2.12.29,2.81.86.7,2.12.57,2.81-.29l11.35-13.97ZM3189.11,839.89c-1.1.11-1.9,1.1-1.78,2.19s1.1,1.9,2.19,1.78l-.41-3.98Z"/>
  <rect class="st0" x="3316.43" y="671.76" width="240" height="64" rx="25.6" ry="25.6" transform="translate(-54.12 356.82) rotate(-5.9)"/>
  <path class="st1" d="M3233.28,839.35c14.28-1.48,24.67-14.25,23.19-28.53l-3.98.41c1.25,12.09-7.54,22.9-19.62,24.14l.41,3.98ZM3249.9,747.15c-1.25-12.09,7.54-22.9,19.62-24.14l-.41-3.98c-14.28,1.48-24.67,14.25-23.19,28.53l3.98-.41ZM3269.52,723.01l43.77-4.52-.41-3.98-43.77,4.52.41,3.98ZM3256.47,810.82l-6.58-63.66-3.98.41,6.58,63.66,3.98-.41ZM3189.52,843.87l43.77-4.52-.41-3.98-43.77,4.52.41,3.98ZM3314.63,717.76c.7-.86.57-2.12-.29-2.81l-13.97-11.35c-.86-.7-2.12-.57-2.81.29-.7.86-.57,2.12.29,2.81l12.42,10.09-10.09,12.42c-.7.86-.57,2.12.29,2.81.86.7,2.12.57,2.81-.29l11.35-13.97ZM3189.11,839.89c-1.1.11-1.9,1.1-1.78,2.19s1.1,1.9,2.19,1.78l-.41-3.98Z"/>
  <rect class="st0" x="3339.44" y="894.57" width="240" height="64" rx="25.6" ry="25.6" transform="translate(-76.9 360.36) rotate(-5.9)"/>
  <path class="st1" d="M3233.28,839.35c12.09-1.25,22.9,7.54,24.14,19.62l3.98-.41c-1.48-14.28-14.25-24.67-28.53-23.19l.41,3.98ZM3264,922.63c1.48,14.28,14.25,24.67,28.53,23.19l-.41-3.98c-12.09,1.25-22.9-7.54-24.14-19.62l-3.98.41ZM3292.54,945.82l43.77-4.52-.41-3.98-43.77,4.52.41,3.98ZM3257.43,858.97l6.58,63.66,3.98-.41-6.58-63.66-3.98.41ZM3189.52,843.87l43.77-4.52-.41-3.98-43.77,4.52.41,3.98ZM3337.65,940.58c.7-.86.57-2.12-.29-2.81l-13.97-11.35c-.86-.7-2.12-.57-2.81.29-.7.86-.57,2.12.29,2.81l12.42,10.09-10.09,12.42c-.7.86-.57,2.12.29,2.81.86.7,2.12.57,2.81-.29l11.35-13.97ZM3189.11,839.89c-1.1.11-1.9,1.1-1.78,2.19s1.1,1.9,2.19,1.78l-.41-3.98Z"/>
</svg>